<svg width="98" height="93" fill="none" xmlns="http://www.w3.org/2000/svg"><path d="M57.572.76l2.075-.434h4.513l4.83 1.737 3.53 3.04 1.888 3.04.975 4.777-.713 5.646-2.33 5.212-3.129 4.777-3.492 3.908 4.676-3.04 5.884-2.605 3.329-.869h7.795l4.01 1.737 3.529 3.04 1.865 3.475.658 3.04-.28 5.211-1.85 3.909-3.059 3.474-3.398 2.171-2.942 1.303-4.56.869h-6.564l-4.08-.434 5.968 3.474 3.917 3.474 3.072 3.909 1.409 4.343.34 1.302-.21 3.909-1.897 4.777-3.925 4.343-4.63 2.171-1.664.435h-4.923l-4.42-1.737-3.94-3.04-3.073-3.909-1.114-2.171-2.415-.869h-.82l-.21 3.909-1.944 5.645-2.694 4.343-3.446 3.04-3.596 1.65h-8.164l-3.42-1.65-3.142-2.605-1.889-3.04-.998-4.343.21-3.909 1.51-5.211 2.718-4.778 5.272-6.514-2.144 1.737-6.34 3.474-5.837 1.738h-6.975l-4.42-1.738-3.143-2.605-2.252-3.909-.68-2.606.302-5.645 1.417-3.474 2.648-3.475 4.676-3.04 6.658-1.737h7.385l4.08.434-5.582-3.04-4.713-3.908-2.686-3.475-1.818-4.342-.318-1.738.233-4.343 1.874-4.342 2.648-3.475 4.243-2.605 2.508-.869h6.154l3.623 1.303 3.94 3.04 2.708 3.04 2.98 5.646 1.431 3.908.946-9.988 1.92-5.212 2.672-3.908 3.879-3.475L57.572.76z" fill="#fff"/><path d="M41.481 35.447l5.671-2.39 4.748-.116 4.433 1.431 3.068 2.478 1.786 2.546 1.472 4.092.19 4.162-1.09 4.23-3.129 4.617-2.73 2.093-4.16 1.752-4.221.366-3.908-1.181-3.299-1.91-2.984-3.454-1.62-4.502.125-5.708 1.616-3.98 3.045-3.64.987-.886z" fill="#EFB74A"/></svg>