<svg width="100" height="100" fill="none" xmlns="http://www.w3.org/2000/svg"><path d="M42.501.462h-4.204l-2.293 1.146-1.91 2.293-1.53 4.204v8.79l1.147 4.968 2.675 7.262 3.058 5.732-6.115-6.114-4.968-4.204-5.35-3.058-5.351-1.91h-6.115l-1.91.764-1.912 1.528-1.528 2.676v3.821l1.146 3.058 3.058 4.204 3.057 2.675 4.204 2.675 6.115 3.057 8.025 2.676h-4.586l-9.554.382-6.497 1.528-4.204 1.911-3.44 2.293-1.528 1.911-1.529 2.676v4.203l1.147 2.293 2.675 1.911 3.44 1.529h9.554l3.057-.764 6.88-2.294 7.26-3.439-6.497 6.497-3.44 4.204-2.674 4.586-1.911 4.586-.764 4.204.382 3.44.764 1.91 1.91 2.293 2.294 1.147h3.822l2.293-.765 4.204-2.675 2.675-3.057 3.057-4.204 3.44-7.261 3.44 8.407.381 1.72.383 1.72 2.675 6.115 3.057 3.822 3.44 1.91h4.203l.765-.382 2.293-1.91 1.529-2.294 1.146-3.822v-7.26l-.764-4.205-2.293-6.879-3.44-7.26 4.586 4.585 4.969 4.586 6.114 3.822 5.733 1.91h6.115l1.91-.764 2.293-1.91 1.147-2.293v-3.822l-1.529-3.822-2.675-3.057-3.822-3.44-5.35-3.44-5.35-2.292-6.88-2.293h10.32l3.439-.383 6.879-1.528 4.204-1.911 4.204-3.058 2.293-3.821v-4.204l-.765-1.529-3.057-2.675-4.204-1.529h-8.026l-2.293.383-5.35 1.528-7.261 3.057-5.35 3.058 2.674-1.91 3.822-3.823 3.44-3.821 3.057-3.822 2.675-4.968 1.529-4.968v-5.733l-.764-1.911-1.53-1.91-2.674-1.53h-3.822l-3.057 1.147-3.822 2.675-3.058 3.44-2.675 4.204-3.057 6.114-2.675 8.026v-9.937l-.765-6.114-1.528-5.35-1.911-4.205-2.675-3.44L42.5.463z" fill="#E7637A"/><path d="M43.766 39.853l3.918-1.525 4.115.038 3.82 1.384 2.89 2.156 1.683 2.216 1.247 3.205.318 3.977-1.818 4.81-1.583 2.256-2.215 1.683-3.918 1.525-4.472.1-3.325-1.166-2.89-2.156-1.682-2.216-1.525-3.917-.18-3.621 1.245-4.176 2.512-3.029 1.86-1.544z" fill="#EFB74A"/></svg>