<svg width="95" height="90" fill="none" xmlns="http://www.w3.org/2000/svg"><path d="M31.875 0h-8.75L18.75 2.5l-2.5 3.125-2.5 5-1.875 7.5v8.75h-1.25l-3.75 1.875-4.375 5L0 41.875V52.5l1.25 6.25L5 67.5l3.125 5L15 79.375l6.875 4.375 6.25 2.5 9.375 2.5 7.5.625 4.375-.625H52.5l9.375-3.125 6.25-2.5 3.75-2.5 6.875-4.375L85 70l5-6.25 3.125-6.25L95 51.25V40.625l-1.25-3.75-3.75-5-5.625-3.125-3.75-.625.625-1.875V15.625l-.625-3.125-1.875-4.375-5-5.625L70 .625h-6.25l-6.25 2.5-6.25 5L50 11.25h-1.25l-1.25 2.5h-1.25L44.375 10h-1.25V8.75l-5-5L31.875 0z" fill="#82B86A"/><path d="M46.875 21.25l6.25 1.25 5 2.5 6.25 5.625-.625 2.5-3.125 3.125-4.375 5.625-4.375 9.375L48.75 62.5l-.625 3.75h-1.25l-2.5-10.625-3.75-9.375-4.375-6.875-.625-1.875h-1.25L30 32.5l.625-2.5 2.5-3.125 5.625-3.75 3.75-1.25 4.375-.625z" fill="#FCFCFC"/></svg>