<svg width="120" height="94" fill="none" xmlns="http://www.w3.org/2000/svg"><path d="M44.875 4L35.5.5l-3.5 5-2.75 4.125-2.5 5-1.875 7.5v8.75h-1.25s-5.72-.213-9.375 0C8.633 31.203 0 33 0 33s6.394 4.428 9 8.5c3.268 5.106 4 15 4 15l1.25 6.25L18 71.5l3.125 5L28 83.375l6.875 4.375 6.25 2.5 9.375 2.5 7.5.625 4.375-.625H65.5l9.375-3.125 6.25-2.5 3.75-2.5 6.875-4.375L98 74l5-6.25 3.125-6.25L108 55.25s2.055-7.488 4.5-11.75c2.215-3.862 7-9 7-9s-9.997-2.678-16.5-2.375c-2.208.103-5.625.625-5.625.625l-3.75-.625.625-1.875V19.625l-.625-3.125-1.875-4.375L89 5.5l-4.125-5L76 3l-5.5 4.125-6.25 5L63 15.25h-1.25l-1.25 2.5h-1.25L57.375 14h-1.25v-1.25l-5-5L44.875 4z" fill="#64A5C3"/><path d="M59.875 25.25l6.25 1.25 5 2.5 6.25 5.625-.625 2.5-3.125 3.125-4.375 5.625-4.375 9.375L61.75 66.5l-.625 3.75h-1.25l-2.5-10.625-3.75-9.375-4.375-6.875-.625-1.875h-1.25L43 36.5l.625-2.5 2.5-3.125 5.625-3.75 3.75-1.25 4.375-.625z" fill="#FCFCFC"/></svg>