<svg width="1326" height="403" viewBox="0 0 1326 403" fill="none" xmlns="http://www.w3.org/2000/svg">
<g clip-path="url(#clip0_249_397)">
<path d="M220.588 176.838L223.98 168.897L272.577 185.711L284.057 190.052L353.024 211.06L375.437 217.065L437.411 231.142L484.365 239.931L462.584 231.566L441.751 219.662L422.183 203.04L412.915 190.442L404.279 175.485L397.224 154.629L392.066 126.696L389.96 110.96L385.812 93.4119L379.536 79.0868L376.945 74.5996L377.577 72.2404L391.417 77.213L414.609 89.7489L432.45 103.38L444.941 118.106L453.892 131.883L460.485 145.029L469.814 171.551L476.638 188.551L487.548 209.175L496.816 221.773L510.802 235.636L524.557 245.643L567.425 250.808L581.897 253.421L581.812 258.456L565.529 257.886L524.704 254.533L478.297 248.42L440.78 242.16L380.85 229.895L364.798 233.18L346.301 240.867L334.336 247.775L316.618 261.993L297.637 280.929L284.407 292.556L270.629 301.508L260.159 307.553L240.799 313.744L217.353 316.312L197.215 315.974L192.812 313.53L203.914 305.125L218.725 287.6L239.372 257.731L255.362 240.522L272.447 228.664L286.772 222.387L306.995 217.691L326.27 216.535L331.305 216.619L272.092 196.96L227.35 179.914L220.588 176.838Z" fill="#7FB665"/>
<path d="M230.61 83.5322L223.104 83.5322L218.726 84.812L212.472 88.6513L208.094 93.1306L203.715 100.809L201.213 107.848L199.337 118.086L198.712 132.164L196.835 125.765L193.083 116.807L188.079 108.488L181.824 102.729L176.821 99.5295L170.566 97.6098L164.937 97.6098L161.81 98.2497L154.93 101.449L150.552 105.928L147.424 111.048L145.548 117.447L145.548 123.206L146.173 126.405L148.675 132.804L153.053 138.563L156.181 141.762L158.682 143.042L158.682 144.322L162.435 146.882L174.319 153.281L168.69 152.641L150.552 152.641L147.424 153.281L139.919 155.84L133.039 159.679L128.035 164.799L124.282 172.477L123.657 180.796L125.533 187.195L128.035 191.034L133.664 195.513L139.293 197.433L151.177 197.433L156.181 196.153L162.435 193.594L172.443 188.475L179.323 183.995L174.319 189.754L168.064 198.713L163.061 208.951L161.184 216.63L161.184 224.948L161.81 227.508L164.937 233.907L169.941 238.386L175.57 240.946L183.701 240.946L186.203 240.306L193.708 236.467L198.712 231.347L203.09 224.309L206.217 215.35L208.094 203.192L214.348 208.951L218.101 214.71L223.104 220.469L229.984 224.948L236.864 226.868L241.868 226.868L246.872 225.588L251.875 223.029L256.254 219.189L260.006 212.791L261.883 205.112L261.257 199.993L259.381 193.594L256.254 188.475L250.625 182.716L244.37 177.596L232.486 171.198L238.115 171.837L249.374 172.477L260.006 171.198L268.763 167.998L275.643 163.519L280.646 157.12L283.148 150.081L283.148 143.042L282.523 140.483L279.395 134.084L274.392 129.604L267.512 127.045L256.254 127.045L245.621 130.244L233.737 136.643L226.857 141.123L232.486 134.724L237.49 128.325L243.119 117.447L245.621 109.128L245.621 98.8896L244.37 94.4104L241.243 89.2912L239.992 89.2912L239.992 88.0114L236.239 85.4519L230.61 83.5322Z" fill="#F1C75F"/>
<path d="M203.09 146.242L208.719 146.882L213.723 149.441L217.475 153.921L219.352 159.68L218.726 165.439L216.224 170.558L211.846 175.037L206.843 177.597L200.588 178.237L194.959 176.317L189.955 171.838L188.079 167.358V160.32L189.955 155.2L194.333 150.081L200.588 146.882L203.09 146.242Z" fill="#FDFDFD"/>
<path d="M369.16 182.841L364.725 180.337L361.703 179.646L356.703 179.867L352.595 181.1L347.401 184.256L343.533 187.654L338.95 193.183L333.802 201.439L334.865 196.966L335.687 190.327L335.553 183.656L333.811 178.107L331.94 174.514L328.895 171.273L325.568 169.395L323.503 168.736L318.35 168.365L314.243 169.597L310.657 171.632L307.376 174.853L305.421 178.316L304.705 180.448L304.012 185.13L304.645 190.054L305.407 193.021L306.451 194.625L306.017 195.394L307.366 198.185L312.218 205.998L309.108 203.735L298.388 197.683L296.323 197.025L291.018 196.06L285.649 196.073L280.954 197.481L276.13 200.846L272.937 205.639L271.874 210.113L272.049 213.256L273.856 217.827L276.531 220.859L283.555 224.824L286.946 225.724L291.512 226.272L299.164 226.533L304.75 226.135L299.838 227.928L293.101 231.228L286.669 235.714L282.954 239.705L280.13 244.707L279.631 246.454L279.308 251.345L280.745 255.708L283.203 259.125L288.009 261.838L289.704 262.287L295.443 262.483L300.138 261.074L305.115 258.303L310.004 253.96L315.239 247.276L316.981 252.825L317.244 257.54L318.247 262.672L320.793 267.661L324.208 271.11L327.165 272.779L330.557 273.679L334.383 273.81L338.273 272.962L342.663 270.367L346.378 266.376L347.746 263.089L348.809 258.616L348.698 254.494L347.326 249.154L345.367 243.989L340.515 236.177L343.625 238.439L350.062 242.58L356.78 245.358L363.041 246.356L368.628 245.958L373.757 243.78L377.625 240.382L380.014 236.15L380.513 234.403L380.836 229.512L379.399 225.149L376.202 221.315L369.548 217.559L362.178 215.935L352.982 215.818L347.396 216.216L352.895 214.246L358.024 212.068L365.043 207.406L369.345 203.239L372.82 197.083L373.601 193.972L373.49 189.851L372.751 189.434L373.185 188.664L371.836 185.873L369.16 182.841Z" fill="#E7637A"/>
<path d="M331.611 211.364L334.721 213.627L336.81 216.835L337.507 220.781L336.662 224.869L334.337 228.123L331.121 230.367L327.013 231.599L323.187 231.469L319.273 229.767L316.598 226.735L315.161 222.372L315.572 219.053L317.961 214.821L320.808 212.369L325.133 210.751L329.916 210.914L331.611 211.364Z" fill="#FDFDFD"/>
<path d="M959.239 92.9997C919.87 130.089 895.224 123.027 854.417 141.961C813.61 160.895 788.76 189.953 779.4 216.094C760.758 268.159 746.988 283.319 731.824 301.383C722.939 311.967 686.724 328.118 686.724 328.118L687.511 333C758.921 310.209 832.196 286.636 884.72 236.719C898.723 223.411 915.23 192.15 927.683 166.79C945.791 129.914 959.239 92.9997 959.239 92.9997Z" fill="#7BB361"/>
<path d="M1045.23 235.278L1048.99 237.327L1046.68 239.997L1047.16 241.57L1045.33 245.813L1035.6 254.92L1019.81 267.28L1004.25 277.794L983.543 289.441L942.304 305.619L930.637 308.433L928.974 308.755C946.071 309.922 962.438 312.539 977.022 318.157C984.509 321.042 994.851 329.65 1002.83 336.738C1014.42 347.045 1023.96 357.886 1023.96 357.886C1014.21 357.784 1004.84 359.347 995.619 360.884C984.872 362.677 974.329 364.435 963.625 363.484C943.738 361.715 934.621 356.548 927.938 348.853C922.301 342.363 918.855 337.979 915.836 334.139C911.726 328.91 908.406 324.686 901.423 317.521C900.11 316.173 896.846 314.741 893.281 313.476L893.031 313.492L870.104 312.793L849.489 309.424L823.088 307.1C823.088 307.1 782.532 308.642 752.968 315.615C723.404 322.588 680.475 344.737 680.475 344.737L677.869 341.353L679.699 337.11L683.336 334.327C683.336 334.327 725.074 312.811 755.368 305.724C785.661 298.637 835.907 296.465 835.907 296.465L868.818 300.959L889.166 300.908L910.428 298.736L928.17 295.301L943.331 291.115L976.882 277.953L991.077 270.622L1008.98 260.072L1024.55 249.559L1039.18 238.533L1045.23 235.278Z" fill="#7BB361"/>
<path d="M1132.91 139.291L1136.46 143.354L1138.12 148.165L1137.36 155.999L1134.78 162.728L1128.84 172.39L1118.63 184.897L1105.13 198.482L1102.69 201.504L1115.39 196.679L1125.21 194.367L1135.48 192.563L1146.63 191.775L1158.64 192.929L1165.51 194.986L1172.75 199.403L1177.19 204.481L1179.34 208.874L1179.53 215.869L1176.95 222.598L1171.16 228.553L1164.04 232.985L1156.03 236.401L1143.84 239.88L1132.17 242.014L1119.17 242.625L1111.79 241.915L1098.41 240.164L1084.67 236.051L1088.89 246.69L1092.16 258.167L1094.05 269.047L1093.55 282.023L1090.9 290.605L1087.43 296.319L1082.64 300.509L1080.75 301.258L1076.1 301.741L1071.48 301.297L1064.68 297.387L1058.91 290.786L1055.88 285.378L1052.95 277.189L1050.58 266.728L1048.79 253.067L1048.33 240.93L1042.63 232.475L1035.14 234.545L1024.87 236.349L1016.53 236.477L1005.92 234.992L994.987 230.219L989.146 225.472L985.152 220.901L983.448 217.017L983.184 211.875L985.246 206.492L992.921 199.787L1001.41 195.952L1011.23 193.641L1021.46 192.764L1029.77 193.563L1038.53 194.87L1043.15 195.314L1041.41 192.356L1038.07 182.733L1034.92 168.475L1034.35 159.119L1034.16 152.123L1034.93 144.29L1037.2 133.346L1040.37 123.417L1045.34 114.593L1051.62 108.219L1058.7 104.714L1063.36 104.231L1070.27 105.361L1076.14 109.182L1079.69 113.244L1081.43 116.202L1084.39 123.464L1085.88 132.91L1086.04 140.832L1085.16 151.446L1083.37 161.971L1079.58 176.026L1090.31 162.173L1100.97 150.175L1109.13 143.052L1118.13 137.871L1123.74 136.55L1128.36 136.994L1132.91 139.291Z" fill="white"/>
<path d="M1081.07 203.866L1076.62 198.774L1069.77 195.783L1063.25 196.089L1059.48 197.591L1055.63 200.952L1052.6 207.19L1052.79 214.204L1054.06 217.59L1058.02 223.102L1064.4 226.513L1071.36 226.716L1076.54 224.883L1079.9 221.942L1082.9 216.634L1083.56 211.567L1082.37 206.323L1081.07 203.866Z" fill="#E7637A"/>
<path d="M532.338 244.83L528.379 243.441L526.454 243.169L523.555 243.365L519.306 245.107L516.01 247.588L513.055 251.401L509.79 259.553L509.487 255.808L508.25 250.119L506.615 246.716L503.9 242.934L501.04 240.717L495.642 238.822L493.23 238.784L488.873 239.681L485.703 241.802L483.001 244.895L481.738 248.494L481.592 250.06L482.129 254.29L483.637 258.054L486.819 262.808L490.973 267.096L487.501 265.473L481.023 263.199L474.759 262.618L469.916 263.748L466.747 265.869L464.656 268.369L463.014 273.047L462.976 275.459L463.999 279.456L466.12 282.626L469.573 285.455L475.691 287.602L481.235 287.931L487.644 286.947L489.949 286.139L483.735 290.021L480.187 293.222L477.591 297.162L476.454 300.401L476.271 304.379L477.186 307.529L479.307 310.699L481.904 313.147L489.066 315.66L492.623 315.373L496.386 313.864L499.809 311.023L502.89 306.85L504.027 303.611L504.747 303.863L506.654 305.341L507.102 307.519L508.844 311.769L511.559 315.551L515.012 318.38L519.331 319.896L520.896 320.041L525.487 319.631L529.989 317.169L532.818 313.716L533.955 310.477L533.974 309.271L533.797 305.167L532.055 300.917L529.467 296.775L525.079 292.001L528.551 293.624L534.31 295.645L538.521 296.315L541.419 296.12L544.93 295.331L548.459 293.336L551.036 290.602L552.552 286.284L552.716 283.512L551.927 280.001L549.572 276.345L546.479 273.642L539.641 271.242L536.509 270.952L530.713 271.343L525.87 272.472L529.886 270.244L533.795 267.169L537.11 263.482L539.112 258.93L539.421 254.592L538.506 251.442L536.151 247.786L532.338 244.83Z" fill="#F1C75F"/>
<path d="M508.703 267.256L514.101 269.15L517.554 271.979L519.909 275.635L520.698 279.146L520.534 281.918L519.271 285.517L517.054 288.377L513.884 290.498L509.041 291.628L505.91 291.337L501.951 289.947L498.731 287.605L496.61 284.435L495.335 281.158L495.158 277.054L496.548 273.095L499.863 269.408L503.266 267.773L507.497 267.237L508.703 267.256Z" fill="#FDFDFD"/>
<path d="M549.135 113.815L551.036 111.353L553.572 109.871L558.088 109.429L562.183 110.135L568.312 112.412L576.529 116.794L585.724 122.913L587.705 123.952L583.556 117.307L581.15 112.01L578.982 106.404L577.289 100.183L576.6 93.2636L576.995 89.1464L578.684 84.5547L581.06 81.4767L583.305 79.771L587.24 78.88L591.335 79.5858L595.351 82.1964L598.654 85.7304L601.482 89.88L604.813 96.3834L607.324 102.745L609.123 110.031L609.547 114.289L610.052 122.049L609.262 130.284L614.808 126.706L620.936 123.577L626.878 121.288L634.274 120.122L639.425 120.661L643.045 121.982L645.951 124.227L646.585 125.208L647.379 127.787L647.644 130.448L646.192 134.732L643.103 138.734L640.383 141.055L636.078 143.626L630.426 146.139L622.899 148.678L616.084 150.294L611.939 154.462L613.948 158.47L616.116 164.076L617.121 168.783L617.467 174.946L615.99 181.667L613.957 185.502L611.818 188.272L609.811 189.67L606.932 190.394L603.656 189.83L599.006 186.238L595.888 181.864L593.482 176.566L591.842 170.877L591.365 166.087L591.126 160.988L590.86 158.327L589.382 159.641L584.311 162.604L576.599 165.983L571.369 167.348L567.434 168.239L562.917 168.681L556.471 168.616L550.501 167.936L544.953 166.108L540.647 163.272L537.872 159.655L537.078 157.077L536.945 153.043L538.449 149.292L540.35 146.829L541.829 145.515L545.606 143.027L550.782 141.129L555.246 140.155L561.348 139.463L567.503 139.303L575.877 139.874L566.841 135.352L558.862 130.663L553.921 126.847L549.983 122.332L548.609 119.305L548.344 116.643L549.135 113.815Z" fill="white"/>
<path d="M591.458 135.92L589.076 139.005L588.15 143.216L589.051 146.868L590.323 148.835L592.654 150.635L596.521 151.651L600.467 150.758L602.242 149.665L604.916 146.804L606.133 142.818L605.47 138.858L603.854 136.132L601.814 134.557L598.476 133.457L595.537 133.65L592.703 134.91L591.458 135.92Z" fill="#E7637A"/>
<path d="M375.566 304.468L376.159 306.687L377.465 308.419L379.146 309.456L381.539 310.006L385.954 309.717L390.408 308.527L395.603 306.406L397.322 306.509L400.69 305.799L399.351 307.326L396.687 311.01L394.359 314.902L392.931 317.959L391.725 321.848L391.494 325.179L391.603 326.636L392.196 328.856L393.724 331.42L396.152 333.149L398.021 333.838L401.388 333.83L404.982 332.572L408.541 330.135L411.615 326.935L414.541 323.181L416.305 320.332L417.546 317.622L418.81 314.603L419.186 315.196L421.221 317.671L422.957 319.166L425.812 320.727L428.708 321.221L430.407 320.787L432.006 320.027L432.586 319.527L433.787 317.459L434.329 315.031L434.233 311.709L433.375 308.889L437.052 309.733L441.017 309.863L445.209 308.742L447.008 307.073L447.873 305.058L447.952 303.253L447.284 300.757L445.944 297.845L442.66 293.967L441.842 293.412L443.145 292.879L447.044 290.651L450.962 287.89L453.402 285.682L455.403 283.234L456.745 280.426L456.848 277.757L455.932 275.349L454.634 274.095L452.438 272.894L449.323 272.28L446.626 272.44L442.209 273.567L438.332 275.261L434.893 277.195L431.675 279.249L428.316 282.058L429.675 279.009L430.5 276.572L431.4 274.74L433.525 269.09L434.468 264.974L434.571 262.306L433.895 259.484L432.719 258.023L430.962 257.062L430.53 257.012L430.061 256.315L428.38 255.278L426.511 254.589L425.651 254.521L423.031 255.222L420.633 256.754L418.009 259.536L415.38 264.4L415 265.699L414.453 263.564L413.437 260.829L411.763 257.734L409.828 255.586L408.85 254.778L407.093 253.818L404.536 253.237L401.939 253.724L400.34 254.484L398.24 256.605L396.778 259.62L396.074 263.322L396.149 267.178L396.226 267.784L395.734 267.57L390.874 266.194L385.564 265.235L381.861 265.036L378.307 265.391L374.975 266.579L372.726 268.666L371.485 271.376L371.481 273.458L372.223 276.232L374.162 279.281L376.402 281.357L380.772 284.053L385.183 285.847L389.444 287.086L393.632 288.047L399.391 288.589L397.894 289.286L390.182 291.942L383.929 294.802L379.846 297.379L377.597 299.467L375.832 302.316L375.566 304.468Z" fill="white"/>
<path d="M405.87 291.884L406.868 295.618L409.63 298.881L413.05 300.367L415.365 300.548L418.186 299.793L421.312 297.357L422.982 293.71L423.188 291.654L422.542 287.826L420.133 284.47L416.613 282.61L413.493 282.244L411.025 282.904L408.151 284.873L406.535 287.305L405.823 290.296L405.87 291.884Z" fill="#E7637A"/>
<path d="M623.662 197.252L616.914 197.438L613.83 198.173L609.486 200.242L603.83 205.597L599.997 211.55L597.341 219.421L596.338 234.394L594.037 228.609L589.349 220.291L585.174 215.858L579.158 211.475L573.689 209.677L564.487 209.93L560.773 211.332L554.538 215.403L550.722 220.707L548.099 227.277L547.93 233.779L548.476 236.364L551.374 242.782L555.532 247.865L562.741 253.515L571.21 257.83L565.093 257.349L554.052 257.653L544.17 260.525L537.304 265.263L533.488 270.566L531.513 275.819L531.293 284.272L532.418 288.14L535.946 293.891L540.752 297.657L547.432 300.072L557.86 299.785L566.515 296.947L575.851 291.491L578.986 288.806L571.372 298.763L567.505 306.017L565.462 313.871L565.31 319.723L566.981 326.175L569.929 330.642L574.735 334.409L579.916 336.735L592.122 336.399L597.431 333.783L602.457 329.096L606.306 322.492L608.98 313.971L609.132 308.118L610.359 308.084L614.005 309.283L615.761 312.484L620.516 318.201L626.532 322.584L633.211 324.999L640.572 324.796L643.043 324.078L649.875 320.641L655.564 313.986L658.204 306.765L658.356 300.913L657.794 298.979L655.509 292.544L650.754 286.827L644.755 281.794L635.69 276.846L641.807 277.327L651.621 277.056L658.402 275.57L662.747 273.5L667.739 270.114L672.168 264.793L674.774 258.873L674.977 251.07L673.868 246.552L670.937 241.435L665.534 237.035L659.468 234.603L647.813 234.924L642.872 236.36L634.183 240.499L627.317 245.236L632.377 239.249L636.857 231.977L640.127 224.09L640.96 215.619L639.306 208.517L636.357 204.05L630.955 199.65L623.662 197.252Z" fill="white"/>
<path d="M598.454 247.332L607.655 247.078L614.335 249.493L619.737 253.893L622.668 259.01L623.777 263.528L623.608 270.031L621.615 275.934L617.8 281.238L610.934 285.975L605.993 287.411L599.245 287.597L593.162 285.816L588.356 282.049L584.794 277.599L582.51 271.164L582.696 264.011L585.966 256.123L590.378 251.453L596.597 248.033L598.454 247.332Z" fill="#E7637A"/>
<path d="M981.599 296.789L981.599 290.872L980.59 287.42L977.562 282.488L974.031 279.037L967.977 275.585L962.427 273.612L954.355 272.133L943.255 271.64L948.301 270.16L955.364 267.201L961.922 263.256L966.463 258.325L968.986 254.38L970.499 249.449L970.499 245.01L969.995 242.545L967.472 237.12L963.941 233.668L959.904 231.203L954.859 229.723L950.319 229.723L947.796 230.216L942.751 232.189L938.21 235.641L935.688 238.107L934.679 240.079L933.67 240.079L931.652 243.038L926.606 252.407L927.111 247.969L927.111 233.668L926.606 231.203L924.588 225.285L921.561 219.861L917.525 215.916L911.471 212.957L904.912 212.464L899.867 213.943L896.84 215.916L893.308 220.354L891.795 224.792L891.795 234.161L892.804 238.107L894.822 243.038L898.858 250.928L902.39 256.352L897.849 252.407L890.786 247.476L882.714 243.531L876.659 242.052L870.101 242.052L868.083 242.545L863.037 245.01L859.506 248.955L857.488 253.394L857.488 259.804L857.992 261.777L861.019 267.694L865.056 271.64L870.605 275.091L877.668 277.557L887.254 279.037L882.714 283.968L878.173 286.927L873.632 290.872L870.101 296.296L868.587 301.721L868.587 305.666L869.596 309.611L871.614 313.556L874.641 317.008L879.686 319.967L885.741 321.446L889.777 320.953L894.822 319.473L898.858 317.008L903.399 312.57L907.435 307.638L912.48 298.269L911.975 302.707L911.471 311.583L912.48 319.967L915.003 326.87L918.534 332.295L923.579 336.24L929.129 338.212L934.679 338.212L936.697 337.719L941.742 335.254L945.273 331.309L947.292 325.884L947.292 317.008L944.769 308.624L939.724 299.255L936.192 293.83L941.237 298.269L946.282 302.214L954.859 306.652L961.418 308.624L969.49 308.624L973.022 307.638L977.058 305.173L977.058 304.186L978.067 304.186L980.085 301.227L981.599 296.789Z" fill="#F1C75F"/>
<path d="M932.156 275.091L931.651 279.53L929.633 283.475L926.102 286.433L921.561 287.913L917.021 287.42L912.984 285.447L909.453 281.995L907.435 278.05L906.93 273.119L908.444 268.681L911.975 264.736L915.507 263.256L921.057 263.256L925.093 264.736L929.129 268.188L931.651 273.119L932.156 275.091Z" fill="#FDFDFD"/>
<path d="M1229.41 234.693H1225.31L1223.06 235.813L1221.2 238.053L1219.7 242.16V250.748L1220.82 255.602L1223.44 262.697L1226.43 268.297L1220.45 262.323L1215.6 258.216L1210.37 255.229L1205.14 253.362H1199.17L1197.3 254.109L1195.43 255.602L1193.94 258.216V261.95L1195.06 264.937L1198.05 269.044L1201.04 271.658L1205.14 274.272L1211.12 277.259L1218.96 279.872H1214.48L1205.14 280.246L1198.79 281.739L1194.69 283.606L1191.33 285.847L1189.83 287.714L1188.34 290.327V294.434L1189.46 296.675L1192.07 298.542L1195.43 300.035H1204.77L1207.76 299.289L1214.48 297.048L1221.57 293.688L1215.22 300.035L1211.86 304.143L1209.25 308.623L1207.38 313.104L1206.64 317.211L1207.01 320.572L1207.76 322.438L1209.62 324.679L1211.86 325.799H1215.6L1217.84 325.052L1221.94 322.438L1224.56 319.451L1227.55 315.344L1230.91 308.25L1234.27 316.464L1234.64 318.144L1235.01 319.825L1237.63 325.799L1240.61 329.533L1243.97 331.4H1248.08L1248.83 331.026L1251.07 329.159L1252.56 326.919L1253.68 323.185V316.091L1252.94 311.984L1250.7 305.263L1247.34 298.168L1251.82 302.649L1256.67 307.13L1262.64 310.863L1268.24 312.73H1274.22L1276.09 311.984L1278.33 310.117L1279.45 307.876V304.143L1277.95 300.409L1275.34 297.422L1271.61 294.061L1266.38 290.701L1261.15 288.46L1254.43 286.22H1264.51L1267.87 285.847L1274.59 284.353L1278.7 282.486L1282.81 279.499L1285.05 275.765V271.658L1284.3 270.164L1281.31 267.551L1277.21 266.057H1269.36L1267.12 266.431L1261.9 267.924L1254.8 270.911L1249.58 273.898L1252.19 272.031L1255.92 268.297L1259.28 264.564L1262.27 260.83L1264.88 255.976L1266.38 251.122V245.521L1265.63 243.654L1264.14 241.787L1261.52 240.294H1257.79L1254.8 241.414L1251.07 244.027L1248.08 247.388L1245.47 251.495L1242.48 257.469L1239.87 265.31V255.602L1239.12 249.628L1237.63 244.401L1235.76 240.294L1233.15 236.933L1229.41 234.693Z" fill="#E9627B"/>
<path d="M1234.64 271.658H1238.75L1242.48 273.152L1245.47 275.765L1247.33 278.752L1248.08 281.366V284.727L1246.96 288.46L1243.6 292.194L1241.36 293.688L1238.75 294.435H1234.64L1230.53 292.941L1227.92 290.701L1226.05 287.714L1225.31 285.1V280.993L1226.43 277.632L1229.04 274.272L1232.4 272.405L1234.64 271.658Z" fill="#FDFDFD"/>
<path d="M698.621 199.344H694.417L692.124 200.49L690.213 202.783L688.684 206.987V215.777L689.831 220.745L692.506 228.006L695.564 233.739L689.449 227.624L684.481 223.42L679.13 220.363L673.78 218.452H667.665L665.754 219.217L663.843 220.745L662.315 223.42V227.242L663.461 230.3L666.518 234.503L669.576 237.179L673.78 239.854L679.894 242.911L687.92 245.586H683.334L673.78 245.969L667.283 247.497L663.079 249.408L659.639 251.701L658.111 253.612L656.582 256.287V260.491L657.729 262.784L660.404 264.695L663.843 266.224H673.398L676.455 265.459L683.334 263.166L690.595 259.727L684.098 266.224L680.659 270.428L677.984 275.014L676.073 279.6L675.308 283.804L675.691 287.243L676.455 289.154L678.366 291.447L680.659 292.593H684.481L686.774 291.829L690.977 289.154L693.653 286.097L696.71 281.893L700.15 274.631L703.589 283.039L703.971 284.759L704.353 286.479L707.029 292.593L710.086 296.415L713.526 298.326H717.729L718.494 297.944L720.787 296.033L722.316 293.74L723.462 289.918V282.657L722.698 278.453L720.405 271.574L716.965 264.313L721.551 268.899L726.519 273.485L732.634 277.307L738.367 279.217H744.481L746.392 278.453L748.685 276.542L749.832 274.249V270.428L748.303 266.606L745.628 263.548L741.806 260.109L736.456 256.669L731.105 254.376L724.226 252.083H734.545L737.985 251.701L744.864 250.172L749.068 248.262L753.271 245.204L755.564 241.382V237.179L754.8 235.65L751.743 232.975L747.539 231.446H739.513L737.22 231.828L731.87 233.357L724.609 236.414L719.258 239.472L721.933 237.561L725.755 233.739L729.195 229.917L732.252 226.096L734.927 221.127L736.456 216.159V210.427L735.692 208.516L734.163 206.605L731.488 205.076H727.666L724.609 206.223L720.787 208.898L717.729 212.337L715.054 216.541L711.997 222.656L709.322 230.682V220.745L708.557 214.63L707.029 209.28L705.118 205.076L702.443 201.637L698.621 199.344Z" fill="#E7637A"/>
<path d="M703.971 237.179H708.175L711.997 238.707L715.054 241.383L716.965 244.44L717.729 247.115V250.555L716.583 254.376L713.143 258.198L710.85 259.727L708.175 260.491H703.971L699.767 258.962L697.092 256.669L695.181 253.612L694.417 250.937V246.733L695.564 243.293L698.239 239.854L701.678 237.943L703.971 237.179Z" fill="white"/>
<path d="M84.2648 227.745H81.3465L79.7546 228.541L78.4281 230.133L77.3669 233.051V239.153L78.1628 242.602L80.0199 247.643L82.1424 251.623L77.8975 247.378L74.4485 244.46L70.7342 242.337L67.0199 241.011H62.775L61.4484 241.541L60.1219 242.602L59.0607 244.46V247.113L59.8566 249.235L61.979 252.154L64.1015 254.011L67.0199 255.868L71.2648 257.99L76.8362 259.847H73.6526L67.0199 260.113L62.5097 261.174L59.5913 262.5L57.2035 264.092L56.1423 265.419L55.0811 267.276V270.194L55.877 271.786L57.7341 273.113L60.1219 274.174H66.7546L68.877 273.643L73.6526 272.052L78.6934 269.664L74.1832 274.174L71.7954 277.092L69.9383 280.276L68.6117 283.46L68.0811 286.378L68.3464 288.766L68.877 290.092L70.2036 291.684L71.7954 292.48H74.4485L76.0403 291.95L78.9587 290.092L80.8159 287.97L82.9383 285.052L85.3261 280.011L87.7138 285.848L87.9791 287.041L88.2445 288.235L90.1016 292.48L92.2241 295.133L94.6118 296.46H97.5302L98.0608 296.194L99.6527 294.868L100.714 293.276L101.51 290.623V285.582L100.979 282.664L99.3874 277.888L96.9996 272.847L100.183 276.031L103.632 279.215L107.877 281.868L111.857 283.194H116.102L117.428 282.664L119.02 281.337L119.816 279.745V277.092L118.755 274.439L116.898 272.317L114.245 269.929L110.53 267.541L106.816 265.949L102.04 264.358H109.204L111.591 264.092L116.367 263.031L119.285 261.705L122.204 259.582L123.796 256.929V254.011L123.265 252.949L121.143 251.092L118.224 250.031H112.653L111.061 250.296L107.347 251.358L102.306 253.48L98.5914 255.602L100.449 254.276L103.102 251.623L105.489 248.97L107.612 246.317L109.469 242.868L110.53 239.419V235.439L110 234.113L108.938 232.786L107.081 231.725H104.428L102.306 232.521L99.6527 234.378L97.5302 236.766L95.6731 239.684L93.5506 243.929L91.6934 249.5V242.602L91.1628 238.358L90.1016 234.643L88.7751 231.725L86.9179 229.337L84.2648 227.745Z" fill="white"/>
<path d="M87.9791 254.011H90.8975L93.5506 255.072L95.673 256.929L96.9996 259.052L97.5302 260.909V263.296L96.7343 265.95L94.3465 268.603L92.7546 269.664L90.8975 270.194H87.9791L85.0607 269.133L83.2036 267.541L81.877 265.419L81.3464 263.562V260.643L82.1424 258.256L83.9995 255.868L86.3873 254.541L87.9791 254.011Z" fill="#E7637A"/>
<path d="M760.067 155.651L757.842 155.54L755.564 156.48L754.145 158.095L753.637 159.334L753.553 161.015L754.339 163.161L756.046 164.72L757.138 165.196L759.353 165.517L761.62 164.787L763.261 163.184L764.013 161.536L764.086 160.065L763.513 158.14L762.463 156.824L760.947 155.905L760.067 155.651Z" fill="#E7637A"/>
<path d="M682.696 159.997L679.234 159.825L675.691 161.287L673.484 163.798L672.694 165.725L672.564 168.34L673.786 171.677L676.441 174.103L678.139 174.843L681.584 175.343L685.111 174.207L687.664 171.713L688.833 169.15L688.947 166.862L688.055 163.868L686.422 161.821L684.064 160.393L682.696 159.997Z" fill="white"/>
<path d="M1088.7 335.483L1085.23 335.31L1081.69 336.772L1079.48 339.284L1078.69 341.21L1078.56 343.825L1079.79 347.163L1082.44 349.589L1084.14 350.329L1087.58 350.828L1091.11 349.693L1093.66 347.199L1094.83 344.635L1094.95 342.347L1094.05 339.354L1092.42 337.306L1090.06 335.878L1088.7 335.483Z" fill="white"/>
<path d="M1229.48 112.671L1228.01 112.598L1226.5 113.219L1225.57 114.285L1225.23 115.103L1225.18 116.214L1225.7 117.631L1226.82 118.661L1227.54 118.976L1229.01 119.188L1230.51 118.706L1231.59 117.646L1232.09 116.558L1232.13 115.586L1231.76 114.315L1231.06 113.446L1230.06 112.839L1229.48 112.671Z" fill="#F1C75F"/>
<path d="M992.607 120.386L989.837 120.248L987.002 121.418L985.235 123.428L984.603 124.97L984.499 127.063L985.477 129.734L987.602 131.675L988.961 132.267L991.718 132.667L994.54 131.758L996.583 129.762L997.518 127.711L997.609 125.88L996.896 123.484L995.589 121.846L993.702 120.703L992.607 120.386Z" fill="#F1C75F"/>
<path d="M313.607 324.386L310.837 324.248L308.002 325.418L306.235 327.428L305.603 328.97L305.499 331.062L306.477 333.733L308.602 335.675L309.961 336.267L312.718 336.666L315.54 335.758L317.583 333.762L318.518 331.711L318.609 329.88L317.896 327.484L316.589 325.846L314.702 324.703L313.607 324.386Z" fill="#F1C75F"/>
<path d="M674.12 357.461L672.146 357.363L670.126 358.197L668.868 359.629L668.417 360.727L668.343 362.218L669.04 364.122L670.554 365.505L671.522 365.927L673.486 366.211L675.497 365.564L676.953 364.142L677.619 362.68L677.684 361.376L677.176 359.669L676.245 358.501L674.9 357.687L674.12 357.461Z" fill="#F1C75F"/>
<path d="M507.696 347.483L504.234 347.31L500.691 348.772L498.484 351.284L497.694 353.21L497.564 355.825L498.786 359.163L501.441 361.589L503.139 362.329L506.584 362.828L510.111 361.693L512.664 359.199L513.833 356.636L513.947 354.348L513.055 351.354L511.422 349.307L509.064 347.878L507.696 347.483Z" fill="white"/>
<path d="M347.605 139.329L345.248 139.211L342.834 140.207L341.331 141.918L340.793 143.23L340.704 145.011L341.536 147.285L343.345 148.937L344.502 149.441L346.848 149.781L349.25 149.008L350.99 147.309L351.786 145.563L351.863 144.005L351.256 141.966L350.143 140.571L348.537 139.598L347.605 139.329Z" fill="white"/>
<path d="M106.361 193.329L104.004 193.211L101.59 194.207L100.087 195.918L99.549 197.23L99.4603 199.011L100.293 201.285L102.101 202.937L103.258 203.441L105.604 203.781L108.007 203.008L109.746 201.309L110.542 199.563L110.619 198.005L110.012 195.966L108.899 194.571L107.293 193.598L106.361 193.329Z" fill="white"/>
<path d="M762.788 329.201L761.349 329.129L759.877 329.736L758.96 330.78L758.631 331.581L758.577 332.668L759.085 334.055L760.188 335.063L760.894 335.37L762.326 335.578L763.791 335.106L764.852 334.07L765.338 333.004L765.385 332.053L765.015 330.809L764.336 329.959L763.356 329.365L762.788 329.201Z" fill="white"/>
<path d="M966.584 187.201L965.146 187.129L963.673 187.736L962.756 188.78L962.428 189.581L962.374 190.668L962.882 192.055L963.985 193.063L964.691 193.37L966.122 193.578L967.588 193.106L968.649 192.07L969.135 191.004L969.182 190.053L968.811 188.809L968.133 187.959L967.153 187.365L966.584 187.201Z" fill="white"/>
<path d="M827.203 339.863L823.335 339.67L819.376 341.304L816.909 344.111L816.026 346.264L815.881 349.187L817.246 352.917L820.214 355.628L822.111 356.455L825.962 357.013L829.903 355.744L832.756 352.957L834.062 350.092L834.189 347.535L833.193 344.19L831.368 341.901L828.733 340.305L827.203 339.863Z" fill="#E7637A"/>
<path d="M1127.96 284.31L1125.74 284.199L1123.46 285.139L1122.04 286.754L1121.53 287.993L1121.45 289.674L1122.23 291.82L1123.94 293.38L1125.03 293.855L1127.25 294.176L1129.51 293.446L1131.16 291.843L1131.91 290.195L1131.98 288.724L1131.41 286.799L1130.36 285.483L1128.84 284.565L1127.96 284.31Z" fill="#E7637A"/>
<path d="M1180.49 161.714L1177.43 161.561L1174.29 162.854L1172.34 165.076L1171.64 166.781L1171.53 169.094L1172.61 172.046L1174.96 174.193L1176.46 174.847L1179.51 175.289L1182.63 174.285L1184.88 172.078L1185.92 169.811L1186.02 167.786L1185.23 165.138L1183.79 163.327L1181.7 162.064L1180.49 161.714Z" fill="#E7637A"/>
<path d="M498.962 115.31L496.736 115.199L494.458 116.139L493.039 117.754L492.532 118.993L492.448 120.674L493.233 122.82L494.94 124.38L496.032 124.855L498.247 125.176L500.515 124.446L502.156 122.843L502.907 121.195L502.981 119.724L502.407 117.799L501.357 116.483L499.841 115.565L498.962 115.31Z" fill="#E7637A"/>
<path d="M174.881 268.733L171.358 268.558L167.753 270.046L165.506 272.602L164.702 274.563L164.57 277.224L165.813 280.621L168.516 283.09L170.244 283.843L173.75 284.351L177.339 283.196L179.938 280.657L181.127 278.048L181.243 275.72L180.335 272.673L178.673 270.589L176.273 269.136L174.881 268.733Z" fill="#E7637A"/>
<path d="M79.9616 95.3103L77.7362 95.1995L75.4585 96.1394L74.0395 97.7541L73.5316 98.9929L73.4479 100.674L74.2334 102.82L75.9405 104.38L77.0323 104.855L79.2472 105.176L81.5145 104.447L83.156 102.843L83.9074 101.195L83.9806 99.7239L83.4072 97.7993L82.3573 96.483L80.8413 95.5648L79.9616 95.3103Z" fill="#E7637A"/>
</g>
<defs>
<clipPath id="clip0_249_397">
<rect width="1326" height="403" fill="white"/>
</clipPath>
</defs>
</svg>
