<svg width="185" height="66" fill="none" xmlns="http://www.w3.org/2000/svg"><path d="M49 66c-4.843 0-9.016-2.869-10.912-7H26C11.64 59 0 47.36 0 33S11.64 7 26 7h12.088C39.984 2.869 44.157 0 49 0h87c4.843 0 9.016 2.869 10.912 7H159c14.359 0 26 11.64 26 26s-11.641 26-26 26h-12.088c-1.896 4.131-6.069 7-10.912 7H49z" fill="#7AB462"/><path fill-rule="evenodd" clip-rule="evenodd" d="M41.295 54l1.337 2.914A7.002 7.002 0 0049 61h87a7.004 7.004 0 006.368-4.086L143.705 54H159c11.598 0 21-9.402 21-21s-9.402-21-21-21h-15.295l-1.337-2.914A7.004 7.004 0 00136 5H49a7.002 7.002 0 00-6.368 4.086L41.295 12H26C14.402 12 5 21.402 5 33s9.402 21 21 21h15.295zM38.088 7H26C11.64 7 0 18.64 0 33s11.64 26 26 26h12.088c1.896 4.131 6.069 7 10.912 7h87c4.843 0 9.016-2.869 10.912-7H159c14.359 0 26-11.64 26-26S173.359 7 159 7h-12.088c-1.896-4.131-6.069-7-10.912-7H49c-4.843 0-9.016 2.869-10.912 7z" fill="#FFB8C6"/></svg>