<svg width="267" height="208" fill="none" xmlns="http://www.w3.org/2000/svg"><path d="M135.46 191.187l-1.96-1.325-1.96 1.325C118.984 199.674 104.461 204.5 89 204.5c-46.729 0-85.5-44.464-85.5-100.5S42.271 3.5 89 3.5c15.461 0 29.984 4.826 42.54 13.313l1.96 1.325 1.96-1.325C148.016 8.326 162.539 3.5 178 3.5c46.729 0 85.5 44.464 85.5 100.5S224.729 204.5 178 204.5c-15.461 0-29.984-4.826-42.54-13.313z" fill="#60A3BF" stroke="#F1C75F" stroke-width="7"/><path d="M189.083 111h-4.126V91.713h4.126v12.659a24.164 24.164 0 001.989-1.612c.659-.586 1.286-1.2 1.88-1.843a26.208 26.208 0 001.648-1.99c.513-.675.96-1.35 1.343-2.026h2.807c-.569.96-1.245 1.92-2.026 2.88a29.838 29.838 0 01-2.551 2.735l4.626 8.484h-4.553l-3.284-5.884c-.61.415-1.237.798-1.879 1.148V111zm-6.739-7.081a7.032 7.032 0 01-1.111 3.846 6.912 6.912 0 01-1.245 1.477 7.822 7.822 0 01-1.611 1.098 8.27 8.27 0 01-1.868.696 8.454 8.454 0 01-2.038.244c-.7 0-1.38-.081-2.039-.244a8.585 8.585 0 01-1.868-.696 8.019 8.019 0 01-1.599-1.098 7.274 7.274 0 01-1.257-1.477 7.15 7.15 0 01-1.099-3.846c0-.724.098-1.407.293-2.05a7.34 7.34 0 01.806-1.795 6.98 6.98 0 011.257-1.465 7.742 7.742 0 011.599-1.11 8.57 8.57 0 015.945-.696c.668.163 1.29.394 1.868.696a7.56 7.56 0 011.611 1.11c.489.432.904.92 1.245 1.465.35.545.623 1.144.818 1.795.196.643.293 1.326.293 2.05zm-4.199 0c0-.39-.024-.801-.073-1.232a8.27 8.27 0 00-.22-1.282 6.158 6.158 0 00-.439-1.209 3.717 3.717 0 00-.672-1.013 2.956 2.956 0 00-.964-.696c-.374-.179-.81-.268-1.306-.268-.472 0-.891.09-1.258.268-.366.18-.687.42-.964.72a4.186 4.186 0 00-.684 1.026 8.339 8.339 0 00-.683 2.49c-.049.423-.073.822-.073 1.196 0 .375.024.778.073 1.209.049.423.13.846.244 1.269.114.424.26.831.439 1.221.188.383.415.724.684 1.026.277.293.598.529.964.708.367.179.786.268 1.258.268.488 0 .919-.085 1.294-.256.374-.179.695-.415.964-.708.277-.293.505-.631.684-1.013.179-.383.321-.786.427-1.209.114-.423.191-.85.232-1.282.049-.431.073-.842.073-1.233zm-13.306 0a7.032 7.032 0 01-1.11 3.846 6.946 6.946 0 01-1.246 1.477 7.822 7.822 0 01-1.611 1.098 8.27 8.27 0 01-1.868.696 8.454 8.454 0 01-2.038.244c-.7 0-1.38-.081-2.039-.244a8.577 8.577 0 01-1.867-.696 7.997 7.997 0 01-1.6-1.098 7.274 7.274 0 01-1.257-1.477 7.15 7.15 0 01-1.099-3.846c0-.724.098-1.407.293-2.05a7.34 7.34 0 01.806-1.795 6.98 6.98 0 011.257-1.465 7.722 7.722 0 011.6-1.11 8.561 8.561 0 015.944-.696c.668.163 1.29.394 1.868.696a7.56 7.56 0 011.611 1.11c.489.432.904.92 1.246 1.465.349.545.622 1.144.817 1.795.196.643.293 1.326.293 2.05zm-4.199 0c0-.39-.024-.801-.073-1.232a8.27 8.27 0 00-.22-1.282 6.158 6.158 0 00-.439-1.209 3.717 3.717 0 00-.672-1.013 2.956 2.956 0 00-.964-.696c-.374-.179-.81-.268-1.306-.268-.472 0-.891.09-1.258.268-.366.18-.687.42-.964.72a4.183 4.183 0 00-.683 1.026 8.339 8.339 0 00-.684 2.49c-.049.423-.073.822-.073 1.196 0 .375.024.778.073 1.209.049.423.13.846.244 1.269.114.424.261.831.44 1.221.187.383.415.724.683 1.026.277.293.598.529.964.708.367.179.786.268 1.258.268.488 0 .919-.085 1.294-.256.374-.179.696-.415.964-.708.277-.293.505-.631.684-1.013.179-.383.321-.786.427-1.209.114-.423.191-.85.232-1.282.049-.431.073-.842.073-1.233zm-13.354.05a8.776 8.776 0 01-.464 2.881 6.938 6.938 0 01-1.343 2.343 6.31 6.31 0 01-2.148 1.563c-.847.382-1.807.574-2.881.574a4.979 4.979 0 01-2.918-.928 5.414 5.414 0 01-1.086-1.074 5.163 5.163 0 01-.733-1.392L133.882 111h-1.587V91.713h4.126v6.872c.489-.675 1.075-1.171 1.758-1.489a5.382 5.382 0 012.271-.476c1.074 0 2.034.191 2.881.574a6.314 6.314 0 012.148 1.562 6.812 6.812 0 011.343 2.332c.309.895.464 1.855.464 2.881zm-4.187 0c0-.358-.021-.737-.061-1.136a8.681 8.681 0 00-.184-1.208 6.046 6.046 0 00-.378-1.147 3.507 3.507 0 00-.598-.965 2.636 2.636 0 00-.879-.671c-.342-.171-.745-.257-1.208-.257-.424 0-.802.09-1.136.269-.325.17-.614.403-.866.696a4.385 4.385 0 00-.623 1.001 7.304 7.304 0 00-.415 1.159 8.943 8.943 0 00-.232 1.185 8.66 8.66 0 00-.073 1.074c0 .366.016.753.049 1.159.04.407.105.814.195 1.221.089.399.212.781.366 1.148.163.358.366.679.611.964.252.277.549.496.891.659.35.163.761.244 1.233.244.455 0 .854-.081 1.196-.244.35-.171.647-.395.891-.671.244-.285.443-.611.598-.977.163-.374.289-.761.378-1.16a8.65 8.65 0 00.184-1.196c.04-.407.061-.789.061-1.147zm-23.548.341c.505.114 1.009.204 1.514.269.504.065 1.013.097 1.526.097.537 0 1.033-.049 1.489-.146a3.326 3.326 0 001.196-.513c.342-.244.611-.566.806-.964.195-.399.293-.895.293-1.49 0-.48-.065-.919-.195-1.318a2.79 2.79 0 00-.586-1.025 2.529 2.529 0 00-.94-.66c-.375-.162-.81-.244-1.306-.244-.464 0-.883.086-1.258.257-.366.17-.691.403-.976.696a4.339 4.339 0 00-.72 1.001 7.577 7.577 0 00-.769 2.453 8.986 8.986 0 00-.086 1.196v.196c0 .065.004.13.012.195zm10.169-2.783c0 .578-.094 1.094-.281 1.55a3.862 3.862 0 01-.769 1.184 4.477 4.477 0 01-1.111.867 7.51 7.51 0 01-1.355.586c-.48.146-.976.252-1.489.317-.505.065-.997.098-1.477.098-.611 0-1.213-.041-1.807-.122-.594-.09-1.18-.228-1.758-.415.09.537.232 1.05.428 1.538.195.48.455.903.781 1.269.325.358.724.643 1.196.855.48.211 1.046.317 1.697.317a3.882 3.882 0 002.307-.744c.326-.236.61-.517.855-.843.252-.325.455-.687.61-1.086l1.782.659a5.127 5.127 0 01-1.111 1.672 6.419 6.419 0 01-1.587 1.16 7.729 7.729 0 01-1.88.672 9.062 9.062 0 01-1.965.219c-1.074 0-2.067-.179-2.978-.537a7.04 7.04 0 01-2.356-1.526 7.003 7.003 0 01-1.551-2.331c-.374-.904-.561-1.892-.561-2.967 0-1.074.187-2.063.561-2.966a7.005 7.005 0 011.551-2.331 6.89 6.89 0 012.356-1.514c.911-.366 1.904-.55 2.978-.55.521 0 1.054.037 1.599.11a9.33 9.33 0 011.587.354c.513.155.997.358 1.453.61.456.253.85.566 1.184.94a4.1 4.1 0 01.806 1.282c.203.489.305 1.046.305 1.673zm-16.004-1.135l-1.782.708c-.285-.896-.761-1.583-1.428-2.063-.667-.48-1.469-.72-2.405-.72-.504 0-.956.08-1.355.244a3.34 3.34 0 00-1.038.646 4.227 4.227 0 00-.756.965 6.219 6.219 0 00-.501 1.172c-.13.415-.224.846-.281 1.294a9.945 9.945 0 00-.085 1.281c0 .448.024.9.073 1.355.049.456.13.896.244 1.319.122.415.281.805.476 1.172.196.358.44.671.733.94.301.268.655.48 1.062.634.415.155.891.232 1.428.232a3.882 3.882 0 002.307-.744 4.22 4.22 0 00.867-.843 4.01 4.01 0 00.598-1.086l1.794.659a5.442 5.442 0 01-1.074 1.672c-.439.464-.94.851-1.501 1.16a7.211 7.211 0 01-1.807.672 8.793 8.793 0 01-1.953.219c-1.066 0-2.055-.179-2.966-.537a7.174 7.174 0 01-2.368-1.526 7.169 7.169 0 01-1.551-2.331c-.374-.904-.561-1.892-.561-2.967 0-1.082.183-2.075.549-2.978a7.003 7.003 0 011.55-2.332 6.91 6.91 0 012.356-1.513c.912-.358 1.909-.537 2.991-.537.684 0 1.351.077 2.002.231a6.467 6.467 0 011.807.696 5.85 5.85 0 011.501 1.184c.448.48.806 1.054 1.074 1.722zM97.249 111h-4.126v-1.685c-.488.667-1.078 1.164-1.77 1.489-.684.318-1.436.476-2.258.476-1.075 0-2.035-.191-2.881-.573a6.321 6.321 0 01-2.149-1.563 6.947 6.947 0 01-1.342-2.344 8.76 8.76 0 01-.464-2.881 8.74 8.74 0 01.464-2.88 6.808 6.808 0 011.342-2.332 6.236 6.236 0 012.149-1.575c.846-.382 1.806-.573 2.88-.573a4.872 4.872 0 012.906.94c.415.293.777.65 1.086 1.074.318.415.566.879.745 1.391l1.831-3.064h1.587V111zm-4.15-7.081c0-.366-.02-.752-.061-1.159a8.685 8.685 0 00-.183-1.209 5.827 5.827 0 00-.379-1.135 3.355 3.355 0 00-.61-.964 2.603 2.603 0 00-.891-.672c-.35-.162-.757-.244-1.221-.244-.464 0-.867.086-1.209.257a2.636 2.636 0 00-.879.67 3.744 3.744 0 00-.61.965 6.731 6.731 0 00-.366 1.148c-.09.398-.155.801-.195 1.208a13.8 13.8 0 00-.05 1.135c0 .359.017.741.05 1.148.04.407.105.81.195 1.208.09.399.212.782.366 1.148.163.366.366.692.61.976.245.277.538.501.88.672.341.163.744.244 1.208.244.423 0 .797-.086 1.123-.256a2.91 2.91 0 00.867-.708 4.2 4.2 0 00.634-1.001c.171-.375.31-.761.415-1.16a8.96 8.96 0 00.306-2.271zM73.836 111H68.99V93.422h12.622v2.246h-7.776v5.432h6.006v2.234h-6.006V111z" fill="#FDFDFD"/></svg>