<svg width="304" height="473" fill="none" xmlns="http://www.w3.org/2000/svg"><path d="M65.959 276.083c-8.375-20.886-15.87-39.575-42.634-62.448 0 0 38.149 9.389 76.763 23.416 26.554 9.645 59.413 22.686 74.153 35.172 23.729 20.101 43.046 44.525 59.767 71.276-2.822-11.128-4.529-18.87-4.529-18.87l-1.262-33.193-3.567-20.032-5.815-20.567-6.45-16.881-6.743-14.21-18.763-30.771-9.675-12.714-13.486-15.813-13.046-13.515-13.388-12.501-4.251-5.396 1.368-4.06 3.029 1.817 1.466-.748 4.495 1.069 10.652 8.013 14.903 13.409 13.046 13.516 15.05 18.377 23.063 37.822 4.788 11.005.605 1.582c-1.806-17.041-2.058-33.614.955-48.95 1.547-7.873 8.238-19.547 13.841-28.627 8.147-13.204 17.176-24.473 17.176-24.473 1.585 9.622 4.744 18.581 7.853 27.397 3.623 10.276 7.177 20.357 8.09 31.064 1.696 19.893-1.818 29.766-8.242 37.679-5.418 6.674-9.14 10.825-12.401 14.462-4.439 4.953-8.026 8.953-13.876 17.069-1.101 1.526-1.948 4.989-2.577 8.719l.059.243 3.275 22.704.244 20.887 2.275 26.405s4.352 20.249 11.205 41.993c10.607 20.163 20.275 41.092 29.659 62.067 10.759 16.619 20.857 29.901 20.857 29.901l-2.883 3.151-4.495-1.068-3.37-3.102s-2.651-3.489-6.681-9.151l-.006.002-.037-.063c-5.036-7.078-12.209-17.525-19.057-28.793-4.366-5.72-8.769-10.701-12.348-13.099-.755-.505-1.505-1.009-2.253-1.512-18.671-12.545-35.968-24.168-87.668-36.59-26.998-6.487-58.567-28.059-81.79-66.586-8.107-13.45-12.852-25.283-17.344-36.484z" fill="#7BB361"/><path d="M26.723 55.067l-3.387 4.199-1.478 4.874.361 4.625 2.271 5.3 6.66 7.975 8.425 6.8 13.66 8.426 15.5 8.176-14.499-1.302-10.677.049-10.605.973-7.776 1.524-9.046 3.098-6.64 4.174-2.614 2.224-3.387 4.199-2.748 6.449.082 6.999 1.28 4.5 4.677 6.375 7.362 5.075 9.551 3.376 10.326 1.402 11.173.351 7.848-.598 6.857-1.399 9.119-2.174 13.497-5.572 8.902-4.948 2.613-2.225.36 4.625.227 8.849.65 8.324 2.631 9.924 3.975 9.275 5.244 7.7 7.93 6.4 5.659 1.101 5.019-1.149 3.531-2.35 3.811-4.723 3.667-6.574 2.81-11.598-.37-10.699-1.569-8.2-3.551-9.799-3.334-7.025 7.343-7.073 11.876-2.548 13.145-4.122 9.894-4.149 7.559-4.298 4.802-3.924 5.505-6.823 2.676-7.374-.361-4.625-1.28-4.5-1.064-1.724-4.956-4-6.226-2.426-8.912-1.126-12.866 1.748-10.389 3.748-10.74 5.198-9.749 5.997 1.675-14.248-.587-13.473-.578-7.4-2.848-12.698-4.119-11.125-5.533-11.4-4.749-7.3-5.597-6.25-6.866-4.675L90.702.107l-6.857 1.4-3.956 2.873-4.234 5.25-3.099 7.898-.837 7.124.938 12.024 2.704 10.849 3.551 9.8 3.974 9.274 6.949 11.674-3.397-1.875-15.716-10.95-14.084-7.902-10.542-4.176-7.074-1.376-7.848.599-4.45 2.474z" fill="#E8687F"/><path d="M95.898 99.163l-4.246 5.262-1.762 7.267 1.428 6.365 2.132 3.458 3.975 3.208 6.668 1.904 6.875-1.402 3.117-1.829 4.743-4.861 2.258-6.866-1.003-6.891-2.701-4.787-3.478-2.806-5.746-2.03-5.105.225-4.96 2.08-2.195 1.703z" fill="#fff"/></svg>