<svg width="150" height="117" fill="none" xmlns="http://www.w3.org/2000/svg"><path d="M56.276 4.39L44.52 0l-4.39 6.27-3.449 5.173-3.135 6.27-2.351 9.406v10.973h-1.568s-7.173-.267-11.756 0C10.826 38.504 0 40.757 0 40.757s8.019 5.553 11.287 10.66c4.098 6.404 5.016 18.81 5.016 18.81l1.567 7.839 4.703 10.973 3.92 6.27 8.621 8.622 8.622 5.487 7.838 3.135 11.757 3.135 9.405.784 5.487-.784h3.919l11.757-3.919 7.837-3.135 4.703-3.135 8.622-5.487 7.838-7.838 6.27-7.838 3.919-7.838 2.352-7.838s2.577-9.39 5.643-14.735c2.778-4.844 8.778-11.287 8.778-11.287s-12.537-3.359-20.692-2.978c-2.769.13-7.054.784-7.054.784l-4.703-.784.784-2.351V23.984l-.784-3.919-2.351-5.486-3.449-8.309L106.439 0l-11.13 3.135-6.897 5.173-7.838 6.27-1.568 3.92H77.44l-1.568 3.135h-1.567l-2.352-4.703h-1.567v-1.568l-6.27-6.27-7.839-4.703z" fill="#64A5C3"/><path d="M75.088 31.038l7.837 1.568 6.27 3.135 7.839 7.054-.784 3.135-3.919 3.92-5.487 7.053-5.486 11.757-3.92 14.109-.783 4.702h-1.567l-3.136-13.324L67.25 62.39l-5.487-8.622-.784-2.351h-1.567l-5.487-6.27.784-3.136 3.135-3.919 7.054-4.703 4.703-1.567 5.487-.784z" fill="#FCFCFC"/></svg>