<svg width="192" height="195" fill="none" xmlns="http://www.w3.org/2000/svg"><path d="M112.637 40.37l-5.531.152-2.527.602-3.561 1.696-4.636 4.388-3.141 4.88-2.178 6.451-.821 12.273-1.887-4.742-3.842-6.817-3.422-3.634-4.93-3.592-4.484-1.474-7.541.207-3.045 1.15-5.11 3.336-3.128 4.347-2.15 5.385-.138 5.33.447 2.118 2.375 5.26 3.409 4.167 5.908 4.63 6.942 3.537-5.014-.394-9.05.25-8.1 2.353-5.627 3.884-3.127 4.347-1.62 4.305-.18 6.929.923 3.17 2.891 4.714 3.94 3.087 5.474 1.979 8.547-.236 7.095-2.326 7.652-4.471 2.57-2.202-6.242 8.161-3.169 5.946-1.675 6.438-.124 4.796 1.37 5.289 2.416 3.661 3.94 3.087 4.245 1.907 10.005-.276 4.351-2.144 4.12-3.842 3.155-5.413 2.191-6.984.125-4.796 1.005-.028 2.989.983 1.439 2.623 3.898 4.686 4.93 3.592 5.475 1.979 6.033-.166 2.025-.588 5.6-2.818 4.664-5.454 2.163-5.918.125-4.797-.461-1.585-1.873-5.275-3.897-4.685-4.917-4.126-7.431-4.056 5.014.395 8.045-.222 5.558-1.218 3.561-1.696 4.091-2.776 3.63-4.361 2.136-4.852.166-6.396-.908-3.703-2.403-4.195-4.428-3.606-4.972-1.993-9.553.263-4.049 1.177-7.122 3.392-5.628 3.883 4.147-4.907 3.672-5.96 2.68-6.465.683-6.943-1.356-5.82-2.417-3.662-4.427-3.606-5.978-1.966z" fill="#fff"/><path d="M91.975 81.416l7.542-.208 5.475 1.98 4.428 3.605 2.403 4.195.908 3.703-.138 5.33-1.633 4.838-3.128 4.347-5.627 3.884-4.05 1.176-5.53.153-4.987-1.46-3.939-3.087-2.92-3.648-1.872-5.274.153-5.863 2.68-6.465 3.616-3.828 5.097-2.803 1.522-.575z" fill="#EFB74A"/></svg>