<svg width="186" height="66" fill="none" xmlns="http://www.w3.org/2000/svg"><path d="M49.238 66a12 12 0 01-10.911-7H26.238c-14.359 0-26-11.64-26-26s11.641-26 26-26h12.089a12 12 0 0110.911-7h87c4.843 0 9.016 2.869 10.912 7h12.088c14.36 0 26 11.64 26 26s-11.64 26-26 26H147.15c-1.896 4.131-6.069 7-10.912 7h-87z" fill="#FFB8C6"/><path fill-rule="evenodd" clip-rule="evenodd" d="M41.533 54l1.338 2.914A7.002 7.002 0 0049.238 61h87a7.002 7.002 0 006.368-4.086L143.944 54h15.294c11.598 0 21-9.402 21-21s-9.402-21-21-21h-15.294l-1.338-2.914A7.002 7.002 0 00136.238 5h-87a7.002 7.002 0 00-6.367 4.086L41.533 12H26.238c-11.598 0-21 9.402-21 21s9.402 21 21 21h15.295zM38.327 7H26.238c-14.359 0-26 11.64-26 26s11.641 26 26 26h12.089a12 12 0 0010.911 7h87c4.843 0 9.016-2.869 10.912-7h12.088c14.36 0 26-11.64 26-26s-11.64-26-26-26H147.15c-1.896-4.131-6.069-7-10.912-7h-87a12 12 0 00-10.911 7z" fill="#7BB361"/></svg>