<svg width="1326" height="403" fill="none" xmlns="http://www.w3.org/2000/svg"><g clip-path="url(#clip0_249_397)"><path d="M220.588 176.838l3.392-7.941 48.597 16.814 11.48 4.341 68.967 21.008 22.413 6.005 61.974 14.077 46.954 8.789-21.781-8.365-20.833-11.904-19.568-16.622-9.268-12.598-8.636-14.957-7.055-20.856-5.158-27.933-2.106-15.736-4.148-17.548-6.276-14.325-2.591-4.487.632-2.36 13.84 4.973 23.192 12.536 17.841 13.631 12.491 14.726 8.951 13.777 6.593 13.146 9.329 26.522 6.824 17 10.91 20.624 9.268 12.598 13.986 13.863 13.755 10.007 42.868 5.165 14.472 2.613-.085 5.035-16.283-.57-40.825-3.353-46.407-6.113-37.517-6.26-59.93-12.265-16.052 3.285-18.497 7.687-11.965 6.908-17.718 14.218-18.981 18.936-13.23 11.627-13.778 8.952-10.47 6.045-19.36 6.191-23.446 2.568-20.138-.338-4.403-2.444 11.102-8.405 14.811-17.525 20.647-29.869 15.99-17.209 17.085-11.858 14.325-6.277 20.223-4.696 19.275-1.156 5.035.084-59.213-19.659-44.742-17.046-6.762-3.076z" fill="#7FB665"/><path d="M230.61 83.532h-7.506l-4.378 1.28-6.254 3.84-4.378 4.479-4.379 7.678-2.502 7.039-1.876 10.238-.625 14.078-1.877-6.399-3.752-8.958-5.004-8.319-6.255-5.759-5.003-3.2-6.255-1.92h-5.629l-3.127.64-6.88 3.2-4.378 4.479-3.128 5.12-1.876 6.399v5.759l.625 3.199 2.502 6.399 4.378 5.759 3.128 3.199 2.501 1.28v1.28l3.753 2.56 11.884 6.399-5.629-.64h-18.138l-3.128.64-7.505 2.559-6.88 3.839-5.004 5.12-3.753 7.678-.625 8.319 1.876 6.399 2.502 3.839 5.629 4.479 5.629 1.92h11.884l5.004-1.28 6.254-2.559 10.008-5.119 6.88-4.48-5.004 5.759-6.255 8.959-5.003 10.238-1.877 7.679v8.318l.626 2.56 3.127 6.399 5.004 4.479 5.629 2.56h8.131l2.502-.64 7.505-3.839 5.004-5.12 4.378-7.038 3.127-8.959 1.877-12.158 6.254 5.759 3.753 5.759 5.003 5.759 6.88 4.479 6.88 1.92h5.004l5.004-1.28 5.003-2.559 4.379-3.84 3.752-6.398 1.877-7.679-.626-5.119-1.876-6.399-3.127-5.119-5.629-5.759-6.255-5.12-11.884-6.398 5.629.639 11.259.64 10.632-1.279 8.757-3.2 6.88-4.479 5.003-6.399 2.502-7.039v-7.039l-.625-2.559-3.128-6.399-5.003-4.48-6.88-2.559h-11.258l-10.633 3.199-11.884 6.399-6.88 4.48 5.629-6.399 5.004-6.399 5.629-10.878 2.502-8.319V98.89l-1.251-4.48-3.127-5.119h-1.251v-1.28l-3.753-2.56-5.629-1.919z" fill="#F1C75F"/><path d="M203.09 146.242l5.629.64 5.004 2.559 3.752 4.48 1.877 5.759-.626 5.759-2.502 5.119-4.378 4.479-5.003 2.56-6.255.64-5.629-1.92-5.004-4.479-1.876-4.48v-7.038l1.876-5.12 4.378-5.119 6.255-3.199 2.502-.64z" fill="#FDFDFD"/><path d="M369.16 182.841l-4.435-2.504-3.022-.691-5 .221-4.108 1.233-5.194 3.156-3.868 3.398-4.583 5.529-5.148 8.256 1.063-4.473.822-6.639-.134-6.671-1.742-5.549-1.871-3.593-3.045-3.241-3.327-1.878-2.065-.659-5.153-.371-4.107 1.232-3.586 2.035-3.281 3.221-1.955 3.463-.716 2.132-.693 4.682.633 4.924.762 2.967 1.044 1.604-.434.769 1.349 2.791 4.852 7.813-3.11-2.263-10.72-6.052-2.065-.658-5.305-.965-5.369.013-4.695 1.408-4.824 3.365-3.193 4.793-1.063 4.474.175 3.143 1.807 4.571 2.675 3.032 7.024 3.965 3.391.9 4.566.548 7.652.261 5.586-.398-4.912 1.793-6.737 3.3-6.432 4.486-3.715 3.991-2.824 5.002-.499 1.747-.323 4.891 1.437 4.363 2.458 3.417 4.806 2.713 1.695.449 5.739.196 4.695-1.409 4.977-2.771 4.889-4.343 5.235-6.684 1.742 5.549.263 4.715 1.003 5.132 2.546 4.989 3.415 3.449 2.957 1.669 3.392.9 3.826.131 3.89-.848 4.39-2.595 3.715-3.991 1.368-3.287 1.063-4.473-.111-4.122-1.372-5.34-1.959-5.165-4.852-7.812 3.11 2.262 6.437 4.141 6.718 2.778 6.261.998 5.587-.398 5.129-2.178 3.868-3.398 2.389-4.232.499-1.747.323-4.891-1.437-4.363-3.197-3.834-6.654-3.756-7.37-1.624-9.196-.117-5.586.398 5.499-1.97 5.129-2.178 7.019-4.662 4.302-4.167 3.475-6.156.781-3.111-.111-4.121-.739-.417.434-.77-1.349-2.791-2.676-3.032z" fill="#E7637A"/><path d="M331.611 211.364l3.11 2.263 2.089 3.208.697 3.946-.845 4.088-2.325 3.254-3.216 2.244-4.108 1.232-3.826-.13-3.914-1.702-2.675-3.032-1.437-4.363.411-3.319 2.389-4.232 2.847-2.452 4.325-1.618 4.783.163 1.695.45z" fill="#FDFDFD"/><path d="M959.239 93c-39.369 37.089-64.015 30.027-104.822 48.961-40.807 18.934-65.657 47.992-75.017 74.133-18.642 52.065-32.412 67.225-47.576 85.289-8.885 10.584-45.1 26.735-45.1 26.735l.787 4.882c71.41-22.791 144.685-46.364 197.209-96.281 14.003-13.308 30.51-44.569 42.963-69.929C945.791 129.914 959.239 93 959.239 93z" fill="#7BB361"/><path d="M1045.23 235.278l3.76 2.049-2.31 2.67.48 1.573-1.83 4.243-9.73 9.107-15.79 12.36-15.56 10.514-20.707 11.647-41.239 16.178-11.667 2.814-1.663.322c17.097 1.167 33.464 3.784 48.048 9.402 7.487 2.885 17.829 11.493 25.808 18.581 11.59 10.307 21.13 21.148 21.13 21.148-9.75-.102-19.12 1.461-28.341 2.998-10.747 1.793-21.29 3.551-31.994 2.6-19.887-1.769-29.004-6.936-35.687-14.631-5.637-6.49-9.083-10.874-12.102-14.714-4.11-5.229-7.43-9.453-14.413-16.618-1.313-1.348-4.577-2.78-8.142-4.045l-.25.016-22.927-.699-20.615-3.369-26.401-2.324s-40.556 1.542-70.12 8.515c-29.564 6.973-72.493 29.122-72.493 29.122l-2.606-3.384 1.83-4.243 3.637-2.783s41.738-21.516 72.032-28.603c30.293-7.087 80.539-9.259 80.539-9.259l32.911 4.494 20.348-.051 21.262-2.172 17.742-3.435 15.161-4.186 33.551-13.162 14.195-7.331 17.903-10.55 15.57-10.513 14.63-11.026 6.05-3.255z" fill="#7BB361"/><path d="M1132.91 139.291l3.55 4.063 1.66 4.811-.76 7.834-2.58 6.729-5.94 9.662-10.21 12.507-13.5 13.585-2.44 3.022 12.7-4.825 9.82-2.312 10.27-1.804 11.15-.788 12.01 1.154 6.87 2.057 7.24 4.417 4.44 5.078 2.15 4.393.19 6.995-2.58 6.729-5.79 5.955-7.12 4.432-8.01 3.416-12.19 3.479-11.67 2.134-13 .611-7.38-.71-13.38-1.751-13.74-4.113 4.22 10.639 3.27 11.477 1.89 10.88-.5 12.976-2.65 8.582-3.47 5.714-4.79 4.19-1.89.749-4.65.483-4.62-.444-6.8-3.91-5.77-6.601-3.03-5.408-2.93-8.189-2.37-10.461-1.79-13.661-.46-12.137-5.7-8.455-7.49 2.07-10.27 1.804-8.34.128-10.61-1.485-10.933-4.773-5.841-4.747-3.994-4.571-1.704-3.884-.264-5.142 2.062-5.383 7.675-6.705 8.489-3.835 9.82-2.311 10.23-.877 8.31.799 8.76 1.307 4.62.444-1.74-2.958-3.34-9.623-3.15-14.258-.57-9.356-.19-6.996.77-7.833 2.27-10.944 3.17-9.929 4.97-8.824 6.28-6.374 7.08-3.505 4.66-.483 6.91 1.13 5.87 3.821 3.55 4.062 1.74 2.958 2.96 7.262 1.49 9.446.16 7.922-.88 10.614-1.79 10.525-3.79 14.055 10.73-13.853 10.66-11.998 8.16-7.123 9-5.181 5.61-1.321 4.62.444 4.55 2.297z" fill="#fff"/><path d="M1081.07 203.866l-4.45-5.092-6.85-2.991-6.52.306-3.77 1.502-3.85 3.361-3.03 6.238.19 7.014 1.27 3.386 3.96 5.512 6.38 3.411 6.96.203 5.18-1.833 3.36-2.941 3-5.308.66-5.067-1.19-5.244-1.3-2.457z" fill="#E7637A"/><path d="M532.338 244.83l-3.959-1.389-1.925-.272-2.899.196-4.249 1.742-3.296 2.481-2.955 3.813-3.265 8.152-.303-3.745-1.237-5.689-1.635-3.403-2.715-3.782-2.86-2.217-5.398-1.895-2.412-.038-4.357.897-3.17 2.121-2.702 3.093-1.263 3.599-.146 1.566.537 4.23 1.508 3.764 3.182 4.754 4.154 4.288-3.472-1.623-6.478-2.274-6.264-.581-4.843 1.13-3.169 2.121-2.091 2.5-1.642 4.678-.038 2.412 1.023 3.997 2.121 3.17 3.453 2.829 6.118 2.147 5.544.329 6.409-.984 2.305-.808-6.214 3.882-3.548 3.201-2.596 3.94-1.137 3.239-.183 3.978.915 3.15 2.121 3.17 2.597 2.448 7.162 2.513 3.557-.287 3.763-1.509 3.423-2.841 3.081-4.173 1.137-3.239.72.252 1.907 1.478.448 2.178 1.742 4.25 2.715 3.782 3.453 2.829 4.319 1.516 1.565.145 4.591-.41 4.502-2.462 2.829-3.453 1.137-3.239.019-1.206-.177-4.104-1.742-4.25-2.588-4.142-4.388-4.774 3.472 1.623 5.759 2.021 4.211.67 2.898-.195 3.511-.789 3.529-1.995 2.577-2.734 1.516-4.318.164-2.772-.789-3.511-2.355-3.656-3.093-2.703-6.838-2.4-3.132-.29-5.796.391-4.843 1.129 4.016-2.228 3.909-3.075 3.315-3.687 2.002-4.552.309-4.338-.915-3.15-2.355-3.656-3.813-2.956z" fill="#F1C75F"/><path d="M508.703 267.256l5.398 1.894 3.453 2.829 2.355 3.656.789 3.511-.164 2.772-1.263 3.599-2.217 2.86-3.17 2.121-4.843 1.13-3.131-.291-3.959-1.39-3.22-2.342-2.121-3.17-1.275-3.277-.177-4.104 1.39-3.959 3.315-3.687 3.403-1.635 4.231-.536 1.206.019z" fill="#FDFDFD"/><path d="M549.135 113.815l1.901-2.462 2.536-1.482 4.516-.442 4.095.706 6.129 2.277 8.217 4.382 9.195 6.119 1.981 1.039-4.149-6.645-2.406-5.297-2.168-5.606-1.693-6.221-.689-6.92.395-4.117 1.689-4.591 2.376-3.078 2.245-1.706 3.935-.891 4.095.706 4.016 2.61 3.303 3.534 2.828 4.15 3.331 6.503 2.511 6.362 1.799 7.286.424 4.258.505 7.76-.79 8.235 5.546-3.578 6.128-3.129 5.942-2.289 7.396-1.166 5.151.539 3.62 1.321 2.906 2.245.634.981.794 2.579.265 2.661-1.452 4.284-3.089 4.002-2.72 2.321-4.305 2.571-5.652 2.513-7.527 2.539-6.815 1.616-4.145 4.168 2.009 4.008 2.168 5.606 1.005 4.707.346 6.163-1.477 6.721-2.033 3.835-2.139 2.77-2.007 1.398-2.879.724-3.276-.564-4.65-3.592-3.118-4.374-2.406-5.298-1.64-5.689-.477-4.79-.239-5.099-.266-2.661-1.478 1.314-5.071 2.963-7.712 3.379-5.23 1.365-3.935.891-4.517.442-6.446-.065-5.97-.68-5.548-1.828-4.306-2.836-2.775-3.617-.794-2.578-.133-4.034 1.504-3.751 1.901-2.463 1.479-1.314 3.777-2.488 5.176-1.898 4.464-.974 6.102-.692 6.155-.16 8.374.571-9.036-4.522-7.979-4.689-4.941-3.816-3.938-4.515-1.374-3.027-.265-2.662.791-2.828z" fill="#fff"/><path d="M591.458 135.92l-2.382 3.085-.926 4.211.901 3.652 1.272 1.967 2.331 1.8 3.867 1.016 3.946-.893 1.775-1.093 2.674-2.861 1.217-3.986-.663-3.96-1.616-2.726-2.04-1.575-3.338-1.1-2.939.193-2.834 1.26-1.245 1.01z" fill="#E7637A"/><path d="M375.566 304.468l.593 2.219 1.306 1.732 1.681 1.037 2.393.55 4.415-.289 4.454-1.19 5.195-2.121 1.719.103 3.368-.71-1.339 1.527-2.664 3.684-2.328 3.892-1.428 3.057-1.206 3.889-.231 3.331.109 1.457.593 2.22 1.528 2.564 2.428 1.729 1.869.689 3.367-.008 3.594-1.258 3.559-2.437 3.074-3.2 2.926-3.754 1.764-2.849 1.241-2.71 1.264-3.019.376.593 2.035 2.475 1.736 1.495 2.855 1.561 2.896.494 1.699-.434 1.599-.76.58-.5 1.201-2.068.542-2.428-.096-3.322-.858-2.82 3.677.844 3.965.13 4.192-1.121 1.799-1.669.865-2.015.079-1.805-.668-2.496-1.34-2.912-3.284-3.878-.818-.555 1.303-.533 3.899-2.228 3.918-2.761 2.44-2.208 2.001-2.448 1.342-2.808.103-2.669-.916-2.408-1.298-1.254-2.196-1.201-3.115-.614-2.697.16-4.417 1.127-3.877 1.694-3.439 1.934-3.218 2.054-3.359 2.809 1.359-3.049.825-2.437.9-1.832 2.125-5.65.943-4.116.103-2.668-.676-2.822-1.176-1.461-1.757-.961-.432-.05-.469-.697-1.681-1.037-1.869-.689-.86-.068-2.62.701-2.398 1.532-2.624 2.782-2.629 4.864-.38 1.299-.547-2.135-1.016-2.735-1.674-3.095-1.935-2.148-.978-.808-1.757-.96-2.557-.581-2.597.487-1.599.76-2.1 2.121-1.462 3.015-.704 3.702.075 3.856.077.606-.492-.214-4.86-1.376-5.31-.959-3.703-.199-3.554.355-3.332 1.188-2.249 2.087-1.241 2.71-.004 2.082.742 2.774 1.939 3.049 2.24 2.076 4.37 2.696 4.411 1.794 4.261 1.239 4.188.961 5.759.542-1.497.697-7.712 2.656-6.253 2.86-4.083 2.577-2.249 2.088-1.765 2.849-.266 2.152z" fill="#fff"/><path d="M405.87 291.884l.998 3.734 2.762 3.263 3.42 1.486 2.315.181 2.821-.755 3.126-2.436 1.67-3.647.206-2.056-.646-3.828-2.409-3.356-3.52-1.86-3.12-.366-2.468.66-2.874 1.969-1.616 2.432-.712 2.991.047 1.588z" fill="#E7637A"/><path d="M623.662 197.252l-6.748.186-3.084.735-4.344 2.069-5.656 5.355-3.833 5.953-2.656 7.871-1.003 14.973-2.301-5.785-4.688-8.318-4.175-4.433-6.016-4.383-5.469-1.798-9.202.253-3.714 1.402-6.235 4.071-3.816 5.304-2.623 6.57-.169 6.502.546 2.585 2.898 6.418 4.158 5.083 7.209 5.65 8.469 4.315-6.117-.481-11.041.304-9.882 2.872-6.866 4.738-3.816 5.303-1.975 5.253-.22 8.453 1.125 3.868 3.528 5.751 4.806 3.766 6.68 2.415 10.428-.287 8.655-2.838 9.336-5.456 3.135-2.685-7.614 9.957-3.867 7.254-2.043 7.854-.152 5.852 1.671 6.452 2.948 4.467 4.806 3.767 5.181 2.326 12.206-.336 5.309-2.616 5.026-4.687 3.849-6.604 2.674-8.521.152-5.853 1.227-.034 3.646 1.199 1.756 3.201 4.755 5.717 6.016 4.383 6.679 2.415 7.361-.203 2.471-.718 6.832-3.437 5.689-6.655 2.64-7.221.152-5.852-.562-1.934-2.285-6.435-4.755-5.717-5.999-5.033-9.065-4.948 6.117.481 9.814-.271 6.781-1.486 4.345-2.07 4.992-3.386 4.429-5.321 2.606-5.92.203-7.803-1.109-4.518-2.931-5.117-5.403-4.4-6.066-2.432-11.655.321-4.941 1.436-8.689 4.139-6.866 4.737 5.06-5.987 4.48-7.272 3.27-7.887.833-8.471-1.654-7.102-2.949-4.467-5.402-4.4-7.293-2.398z" fill="#fff"/><path d="M598.454 247.332l9.201-.254 6.68 2.415 5.402 4.4 2.931 5.117 1.109 4.518-.169 6.503-1.993 5.903-3.815 5.304-6.866 4.737-4.941 1.436-6.748.186-6.083-1.781-4.806-3.767-3.562-4.45-2.284-6.435.186-7.153 3.27-7.888 4.412-4.67 6.219-3.42 1.857-.701z" fill="#E7637A"/><path d="M981.599 296.789v-5.917l-1.009-3.452-3.028-4.932-3.531-3.451-6.054-3.452-5.55-1.973-8.072-1.479-11.1-.493 5.046-1.48 7.063-2.959 6.558-3.945 4.541-4.931 2.523-3.945 1.513-4.931v-4.439l-.504-2.465-2.523-5.425-3.531-3.452-4.037-2.465-5.045-1.48h-4.54l-2.523.493-5.045 1.973-4.541 3.452-2.522 2.466-1.009 1.972h-1.009l-2.018 2.959-5.046 9.369.505-4.438v-14.301l-.505-2.465-2.018-5.918-3.027-5.424-4.036-3.945-6.054-2.959-6.559-.493-5.045 1.479-3.027 1.973-3.532 4.438-1.513 4.438v9.369l1.009 3.946 2.018 4.931 4.036 7.89 3.532 5.424-4.541-3.945-7.063-4.931-8.072-3.945-6.055-1.479h-6.558l-2.018.493-5.046 2.465-3.531 3.945-2.018 4.439v6.41l.504 1.973 3.027 5.917 4.037 3.946 5.549 3.451 7.063 2.466 9.586 1.48-4.54 4.931-4.541 2.959-4.541 3.945-3.531 5.424-1.514 5.425v3.945l1.009 3.945 2.018 3.945 3.027 3.452 5.045 2.959 6.055 1.479 4.036-.493 5.045-1.48 4.036-2.465 4.541-4.438 4.036-4.932 5.045-9.369-.505 4.438-.504 8.876 1.009 8.384 2.523 6.903 3.531 5.425 5.045 3.945 5.55 1.972h5.55l2.018-.493 5.045-2.465 3.531-3.945 2.019-5.425v-8.876l-2.523-8.384-5.045-9.369-3.532-5.425 5.045 4.439 5.045 3.945 8.577 4.438 6.559 1.972h8.072l3.532-.986 4.036-2.465v-.987h1.009l2.018-2.959 1.514-4.438z" fill="#F1C75F"/><path d="M932.156 275.091l-.505 4.439-2.018 3.945-3.531 2.958-4.541 1.48-4.54-.493-4.037-1.973-3.531-3.452-2.018-3.945-.505-4.931 1.514-4.438 3.531-3.945 3.532-1.48h5.55l4.036 1.48 4.036 3.452 2.522 4.931.505 1.972z" fill="#FDFDFD"/><path d="M1229.41 234.693h-4.1l-2.25 1.12-1.86 2.24-1.5 4.107v8.588l1.12 4.854 2.62 7.095 2.99 5.6-5.98-5.974-4.85-4.107-5.23-2.987-5.23-1.867h-5.97l-1.87.747-1.87 1.493-1.49 2.614v3.734l1.12 2.987 2.99 4.107 2.99 2.614 4.1 2.614 5.98 2.987 7.84 2.613h-4.48l-9.34.374-6.35 1.493-4.1 1.867-3.36 2.241-1.5 1.867-1.49 2.613v4.107l1.12 2.241 2.61 1.867 3.36 1.493h9.34l2.99-.746 6.72-2.241 7.09-3.36-6.35 6.347-3.36 4.108-2.61 4.48-1.87 4.481-.74 4.107.37 3.361.75 1.866 1.86 2.241 2.24 1.12h3.74l2.24-.747 4.1-2.614 2.62-2.987 2.99-4.107 3.36-7.094 3.36 8.214.37 1.68.37 1.681 2.62 5.974 2.98 3.734 3.36 1.867h4.11l.75-.374 2.24-1.867 1.49-2.24 1.12-3.734v-7.094l-.74-4.107-2.24-6.721-3.36-7.095 4.48 4.481 4.85 4.481 5.97 3.733 5.6 1.867h5.98l1.87-.746 2.24-1.867 1.12-2.241v-3.733l-1.5-3.734-2.61-2.987-3.73-3.361-5.23-3.36-5.23-2.241-6.72-2.24h10.08l3.36-.373 6.72-1.494 4.11-1.867 4.11-2.987 2.24-3.734v-4.107l-.75-1.494-2.99-2.613-4.1-1.494h-7.85l-2.24.374-5.22 1.493-7.1 2.987-5.22 2.987 2.61-1.867 3.73-3.734 3.36-3.733 2.99-3.734 2.61-4.854 1.5-4.854v-5.601l-.75-1.867-1.49-1.867-2.62-1.493h-3.73l-2.99 1.12-3.73 2.613-2.99 3.361-2.61 4.107-2.99 5.974-2.61 7.841v-9.708l-.75-5.974-1.49-5.227-1.87-4.107-2.61-3.361-3.74-2.24z" fill="#E9627B"/><path d="M1234.64 271.658h4.11l3.73 1.494 2.99 2.613 1.86 2.987.75 2.614v3.361l-1.12 3.733-3.36 3.734-2.24 1.494-2.61.747h-4.11l-4.11-1.494-2.61-2.24-1.87-2.987-.74-2.614v-4.107l1.12-3.361 2.61-3.36 3.36-1.867 2.24-.747z" fill="#FDFDFD"/><path d="M698.621 199.344h-4.204l-2.293 1.146-1.911 2.293-1.529 4.204v8.79l1.147 4.968 2.675 7.261 3.058 5.733-6.115-6.115-4.968-4.204-5.351-3.057-5.35-1.911h-6.115l-1.911.765-1.911 1.528-1.528 2.675v3.822l1.146 3.058 3.057 4.203 3.058 2.676 4.204 2.675 6.114 3.057 8.026 2.675h-4.586l-9.554.383-6.497 1.528-4.204 1.911-3.44 2.293-1.528 1.911-1.529 2.675v4.204l1.147 2.293 2.675 1.911 3.439 1.529h9.555l3.057-.765 6.879-2.293 7.261-3.439-6.497 6.497-3.439 4.204-2.675 4.586-1.911 4.586-.765 4.204.383 3.439.764 1.911 1.911 2.293 2.293 1.146h3.822l2.293-.764 4.203-2.675 2.676-3.057 3.057-4.204 3.44-7.262 3.439 8.408.382 1.72.382 1.72 2.676 6.114 3.057 3.822 3.44 1.911h4.203l.765-.382 2.293-1.911 1.529-2.293 1.146-3.822v-7.261l-.764-4.204-2.293-6.879-3.44-7.261 4.586 4.586 4.968 4.586 6.115 3.822 5.733 1.91h6.114l1.911-.764 2.293-1.911 1.147-2.293v-3.821l-1.529-3.822-2.675-3.058-3.822-3.439-5.35-3.44-5.351-2.293-6.879-2.293h10.319l3.44-.382 6.879-1.529 4.204-1.91 4.203-3.058 2.293-3.822v-4.203l-.764-1.529-3.057-2.675-4.204-1.529h-8.026l-2.293.382-5.35 1.529-7.261 3.057-5.351 3.058 2.675-1.911 3.822-3.822 3.44-3.822 3.057-3.821 2.675-4.969 1.529-4.968v-5.732l-.764-1.911-1.529-1.911-2.675-1.529h-3.822l-3.057 1.147-3.822 2.675-3.058 3.439-2.675 4.204-3.057 6.115-2.675 8.026v-9.937l-.765-6.115-1.528-5.35-1.911-4.204-2.675-3.439-3.822-2.293z" fill="#E7637A"/><path d="M703.971 237.179h4.204l3.822 1.528 3.057 2.676 1.911 3.057.764 2.675v3.44l-1.146 3.821-3.44 3.822-2.293 1.529-2.675.764h-4.204l-4.204-1.529-2.675-2.293-1.911-3.057-.764-2.675v-4.204l1.147-3.44 2.675-3.439 3.439-1.911 2.293-.764zm-619.706-9.434h-2.918l-1.592.796-1.327 1.592-1.061 2.918v6.102l.796 3.449 1.857 5.041 2.122 3.98-4.245-4.245-3.449-2.918-3.714-2.123-3.714-1.326h-4.245l-1.327.53-1.326 1.061-1.061 1.858v2.653l.796 2.122 2.122 2.919 2.123 1.857 2.918 1.857 4.245 2.122 5.571 1.857h-3.183l-6.633.266-4.51 1.061-2.919 1.326-2.388 1.592-1.06 1.327-1.062 1.857v2.918l.796 1.592 1.857 1.327 2.388 1.061h6.633l2.122-.531 4.776-1.591 5.04-2.388-4.51 4.51-2.388 2.918-1.857 3.184-1.326 3.184-.53 2.918.264 2.388.531 1.326 1.327 1.592 1.591.796h2.653l1.592-.53 2.919-1.858 1.857-2.122 2.122-2.918 2.388-5.041 2.388 5.837.265 1.193.266 1.194 1.857 4.245 2.122 2.653 2.388 1.327h2.918l.53-.266 1.593-1.326 1.061-1.592.796-2.653v-5.041l-.531-2.918-1.592-4.776L97 272.847l3.183 3.184 3.449 3.184 4.245 2.653 3.98 1.326h4.245l1.326-.53 1.592-1.327.796-1.592v-2.653l-1.061-2.653-1.857-2.122-2.653-2.388-3.715-2.388-3.714-1.592-4.776-1.591h7.164l2.387-.266 4.776-1.061 2.918-1.326 2.919-2.123 1.592-2.653v-2.918l-.531-1.062-2.122-1.857-2.919-1.061h-5.571l-1.592.265-3.714 1.062-5.041 2.122-3.715 2.122 1.858-1.326 2.653-2.653 2.387-2.653 2.123-2.653 1.857-3.449 1.061-3.449v-3.98l-.53-1.326-1.062-1.327-1.857-1.061h-2.653l-2.122.796-2.653 1.857-2.123 2.388-1.857 2.918-2.122 4.245-1.858 5.571v-6.898l-.53-4.244-1.061-3.715-1.327-2.918-1.857-2.388-2.653-1.592z" fill="#fff"/><path d="M87.98 254.011h2.917l2.654 1.061 2.122 1.857L97 259.052l.53 1.857v2.387l-.796 2.654-2.387 2.653-1.592 1.061-1.858.53H87.98l-2.918-1.061-1.857-1.592-1.327-2.122-.53-1.857v-2.919l.795-2.387L84 255.868l2.387-1.327 1.592-.53zm672.087-98.36l-2.225-.111-2.278.94-1.419 1.615-.508 1.239-.084 1.681.786 2.146 1.707 1.559 1.092.476 2.215.321 2.267-.73 1.641-1.603.752-1.648.073-1.471-.573-1.925-1.05-1.316-1.516-.919-.88-.254z" fill="#E7637A"/><path d="M682.696 159.997l-3.462-.172-3.543 1.462-2.207 2.511-.79 1.927-.13 2.615 1.222 3.337 2.655 2.426 1.698.74 3.445.5 3.527-1.136 2.553-2.494 1.169-2.563.114-2.288-.892-2.994-1.633-2.047-2.358-1.428-1.368-.396zM1088.7 335.483l-3.47-.173-3.54 1.462-2.21 2.512-.79 1.926-.13 2.615 1.23 3.338 2.65 2.426 1.7.74 3.44.499 3.53-1.135 2.55-2.494 1.17-2.564.12-2.288-.9-2.993-1.63-2.048-2.36-1.428-1.36-.395z" fill="#fff"/><path d="M1229.48 112.671l-1.47-.073-1.51.621-.93 1.066-.34.818-.05 1.111.52 1.417 1.12 1.03.72.315 1.47.212 1.5-.482 1.08-1.06.5-1.088.04-.972-.37-1.271-.7-.869-1-.607-.58-.168zm-236.873 7.715l-2.77-.138-2.835 1.17-1.767 2.01-.632 1.542-.104 2.093.978 2.671 2.125 1.941 1.359.592 2.757.4 2.822-.909 2.043-1.996.935-2.051.091-1.831-.713-2.396-1.307-1.638-1.887-1.143-1.095-.317zm-679 204l-2.77-.138-2.835 1.17-1.767 2.01-.632 1.542-.104 2.092.978 2.671 2.125 1.942 1.359.592 2.757.399 2.822-.908 2.043-1.996.935-2.051.091-1.831-.713-2.396-1.307-1.638-1.887-1.143-1.095-.317zm360.513 33.075l-1.974-.098-2.02.834-1.258 1.432-.451 1.098-.074 1.491.697 1.904 1.514 1.383.968.422 1.964.284 2.011-.647 1.456-1.422.666-1.462.065-1.304-.508-1.707-.931-1.168-1.345-.814-.78-.226z" fill="#F1C75F"/><path d="M507.696 347.483l-3.462-.173-3.543 1.462-2.207 2.512-.79 1.926-.13 2.615 1.222 3.338 2.655 2.426 1.698.74 3.445.499 3.527-1.135 2.553-2.494 1.169-2.563.114-2.288-.892-2.994-1.633-2.047-2.358-1.429-1.368-.395zM347.605 139.329l-2.357-.118-2.414.996-1.503 1.711-.538 1.312-.089 1.781.832 2.274 1.809 1.652 1.157.504 2.346.34 2.402-.773 1.74-1.699.796-1.746.077-1.558-.607-2.039-1.113-1.395-1.606-.973-.932-.269zm-241.244 54l-2.357-.118-2.414.996-1.503 1.711-.538 1.312-.089 1.781.833 2.274 1.808 1.652 1.157.504 2.346.34 2.403-.773 1.739-1.699.796-1.746.077-1.558-.607-2.039-1.113-1.395-1.606-.973-.932-.269zm656.427 135.872l-1.439-.072-1.472.607-.917 1.044-.329.801-.054 1.087.508 1.387 1.103 1.008.706.307 1.432.208 1.465-.472 1.061-1.036.486-1.066.047-.951-.37-1.244-.679-.85-.98-.594-.568-.164zm203.796-142l-1.438-.072-1.473.607-.917 1.044-.328.801-.054 1.087.508 1.387 1.103 1.008.706.307 1.431.208 1.466-.472 1.061-1.036.486-1.066.047-.951-.371-1.244-.678-.85-.98-.594-.569-.164z" fill="#fff"/><path d="M827.203 339.863l-3.868-.193-3.959 1.634-2.467 2.807-.883 2.153-.145 2.923 1.365 3.73 2.968 2.711 1.897.827 3.851.558 3.941-1.269 2.853-2.787 1.306-2.865.127-2.557-.996-3.345-1.825-2.289-2.635-1.596-1.53-.442zm300.757-55.553l-2.22-.111-2.28.94-1.42 1.615-.51 1.239-.08 1.681.78 2.146 1.71 1.56 1.09.475 2.22.321 2.26-.73 1.65-1.603.75-1.648.07-1.471-.57-1.925-1.05-1.316-1.52-.918-.88-.255zm52.53-122.596l-3.06-.153-3.14 1.293-1.95 2.222-.7 1.705-.11 2.313 1.08 2.952 2.35 2.147 1.5.654 3.05.442 3.12-1.004 2.25-2.207 1.04-2.267.1-2.025-.79-2.648-1.44-1.811-2.09-1.263-1.21-.35zM498.962 115.31l-2.226-.111-2.278.94-1.419 1.615-.507 1.239-.084 1.681.785 2.146 1.707 1.56 1.092.475 2.215.321 2.268-.73 1.641-1.603.751-1.648.074-1.471-.574-1.925-1.05-1.316-1.516-.918-.879-.255zM174.881 268.733l-3.523-.175-3.605 1.488-2.247 2.556-.804 1.961-.132 2.661 1.243 3.397 2.703 2.469 1.728.753 3.506.508 3.589-1.155 2.599-2.539 1.189-2.609.116-2.328-.908-3.047-1.662-2.084-2.4-1.453-1.392-.403zM79.962 95.31l-2.226-.11-2.278.94-1.418 1.614-.508 1.239-.084 1.681.785 2.146 1.707 1.56 1.092.475 2.215.321 2.267-.729 1.642-1.604.751-1.648.074-1.471-.574-1.925-1.05-1.316-1.516-.918-.88-.255z" fill="#E7637A"/></g><defs><clipPath id="clip0_249_397"><path fill="#fff" d="M0 0h1326v403H0z"/></clipPath></defs></svg>