<svg width="296" height="490" fill="none" xmlns="http://www.w3.org/2000/svg"><path d="M156.932 160.003l.237 2.839-.444 14.933-4.973 24.845-4.519 16.78-.346 2.612-7.537 24.533-8.47 23.483-2.554 6.559 4.534-6.475 9.306-10.111 8.609-8.322 12.684-10.168 9.078-6.08 10.827-5.398 10.714-3.383 12.229-2.106 2.796-.285 1.749.681-2.198 10.818-6.964 17.889-6.974 11.018-5.932 6.618-8.96 7.498-9.662 5.853-7.567 3.921-6.287 2.359-11.529 3.752-10.832 1.963-9.784.998-5.127-.623-7.898 16.839-8.367 14.596-10.229 15.931s-15.98 22.889-28.781 36.274c-12.802 13.384-47.986 50.988-47.986 50.988l-6.98 7.583L6 439.5l-2.237-4.839 6.396-7.81s34.546-37.015 46.939-50.023c12.393-13.007 27.734-35.307 27.734-35.307l12.901-21.071 5.038-8.45 9.729-17.334L116 287l-4.211-5.864-4.208-9.878-2.347-11.214-.479-9.113.686-8.66 2.198-10.817 1.857-4.771 2.099 1.504 4.323 7.863 2.341 7.778 2.001 13.826.716 11.952.01 6.87-.578 3.209 9.518-24.448 7.423-22.517 3.942-13.573 5.561-21.182 6.134-27.825 3.946-10.137z" fill="#7BB361"/><path d="M217.378 66.8l-6.994-2.723-4.544-.396-7.222 1.309-5.705 2.586-6.865 5.567-4.885 5.652-5.463 8.86-5.69 12.892.573-6.644-.247-9.71-1.645-9.567-3.739-7.635-3.502-4.797-5.132-4.058-5.246-2.042-3.146-.538-7.572.485-5.705 2.586-4.772 3.636-4.07 5.282-2.089 5.367-.578 3.209.01 6.87 1.991 6.955 1.754 4.116 1.867 2.1-.464 1.193 2.568 3.747 8.753 10.274-5.014-2.639-16.902-6.58-3.147-.538-7.922-.338-7.805 1.082-6.52 2.956-6.282 5.794-3.6 7.525-.574 6.643.939 4.486 3.62 6.216 4.55 3.831 11.074 4.311 5.127.623 6.757-.116 11.183-1.14 8.036-1.679-6.752 3.552-9.078 6.079-8.377 7.726-4.535 6.475-3.017 7.752-.346 2.612.593 7.097 3.038 5.989 4.317 4.428 7.577 2.949 2.563.312 8.387-.855 6.52-2.956 6.634-4.971 6.164-7.213 6.159-10.649 3.739 7.635 1.408 6.728 2.574 7.182 4.786 6.67 5.715 4.285 4.663 1.815 5.127.623 5.591-.57 5.473-1.99 5.818-4.601 4.534-6.475 1.275-4.997.573-6.644-1.058-5.905-3.156-7.409-3.971-7.039-8.753-10.274 5.013 2.638 10.259 4.681 10.373 2.664 9.321.195 8.036-1.678 6.984-4.148 4.885-5.651 2.554-6.56.345-2.612-.593-7.097-3.037-5.99-5.483-4.881-10.492-4.084-11.069-.876-13.395 1.652-8.036 1.678 7.567-3.92 6.984-4.148 9.192-8.095 5.349-6.845 3.714-9.54.459-4.628-1.057-5.905-1.166-.454.465-1.193-2.569-3.746-4.549-3.831z" fill="#F1C75F"/><path d="M168.983 115.254l5.014 2.638 3.734 4.201 1.872 5.535-.341 6.048-2.672 5.139-4.188 3.863-5.705 2.586-5.591.57-6.061-1.673-4.549-3.831-3.038-5.989-.124-4.855 2.554-6.559 3.606-4.09 5.937-3.182 6.989-.712 2.563.311z" fill="#FDFDFD"/></svg>