<svg width="389" height="552" fill="none" xmlns="http://www.w3.org/2000/svg"><path d="M145 233.433c12.11 31.124 5.315 63.526 20.301 92.054 14.987 28.528 31.86 39.421 53.199 45.446 42.5 12 51.311 11.821 86.5 23.5 10.165 3.374 29.33 26.929 29.33 26.929l4.021-.675C320.619 370.519 302.269 319.045 262 282.933c-10.736-9.628-36.181-20.606-56.836-28.846C175.129 242.104 145 233.433 145 233.433z" fill="#A9B65C"/><path d="M224.964 185.044l.868-3.537 2.468 1.383 1.112-.719 3.58.665 8.761 6.247 12.367 10.613 10.917 10.807 12.733 14.841 20.002 30.979 4.312 9.119.555 1.316c-2.278-14.43-3.312-28.545-1.724-41.784.816-6.797 5.475-17.118 9.411-25.166C316.051 188.104 322.564 178 322.564 178c1.729 8.116 4.66 15.581 7.543 22.927 3.362 8.561 6.659 16.96 7.916 26.039 2.335 16.866.077 25.476-4.562 32.575-3.913 5.987-6.623 9.731-8.997 13.011-3.233 4.466-5.844 8.073-10.023 15.313-.786 1.362-1.276 4.36-1.581 7.575l.059.204 3.715 19.176 1.247 17.794L321 355s8.693 33.36 19.5 56.5c10.806 23.14 35.682 54.319 35.682 54.319l-2.102 2.845-3.58-.664-2.8-2.459s-24.172-30.318-35.2-54.041c-11.029-23.723-22-65-22-65l-2.667-28.229-3.81-16.883-5.601-17.215-5.912-14.037-6.007-11.745-16.273-25.203-8.231-10.308-11.378-12.741-10.916-10.806-11.134-9.923-3.607-4.366z" fill="#A9B65C"/><path d="M168.862 109.065l3.416-2.206 3.77-.721 5.76 1.424 4.739 2.655 6.561 5.478 8.217 8.981 8.666 11.549 1.989 2.144-2.218-9.997-.656-7.578-.229-7.853.625-8.405 2.167-8.83 2.281-4.901 4.083-4.923 4.27-2.758 3.51-1.124 5.239.617 4.739 2.655 3.811 4.968 2.531 5.795 1.677 6.347 1.27 9.467.323 8.935-.959 9.764-1.333 5.433-2.76 9.784-4.563 9.804 8.395-1.992 8.916-1.186 8.321-.231 9.624 1.786 6.114 2.91 3.884 3.206 2.604 4.034.354 1.486-.146 3.523-.833 3.396-3.656 4.647-5.551 3.585-4.364 1.675-6.427 1.293-8.061.634-10.384-.152-9.103-.979-6.926 3.33.729 5.816.229 7.854-.813 6.239-2.26 7.747-4.75 7.639-4.177 3.841-3.843 2.482-3.083.848-3.864-.362-3.791-2.124-4.166-6.454-1.937-6.75-.656-7.577.459-7.726 1.5-6.112 1.927-6.389.833-3.395-2.395.975-7.541 1.441-10.978.803-7.04-.596-5.239-.617-5.76-1.424-7.915-2.889-7.062-3.441-6.04-4.672-4.073-5.371-1.843-5.667.146-3.524 1.594-5.03 3.489-3.968 3.416-2.206 2.396-.975 5.739-1.421 7.207-.082 5.926.744 7.822 1.807 7.655 2.486 10.071 4.354-9.165-9.512-7.79-9.256-4.426-6.857-2.885-7.281-.375-4.33.834-3.396 2.208-3.141z" fill="#F8F0DD"/><path d="M211.389 154.755l-4.281 2.765-2.977 4.786-.48 4.893.71 2.979 2.088 3.235 4.324 2.937 5.252.619 2.663-.573 4.543-2.361 3.238-4.382.909-5.17-.804-4.064-1.828-2.83-3.634-2.81-3.707-1.043-4.042.318-1.974.701z" fill="#E7637A"/></svg>