<svg width="224" height="243" fill="none" xmlns="http://www.w3.org/2000/svg"><path d="M3.503 220.862l-.003-.157V109.461C3.5 51.01 51.917 3.5 111.798 3.5c59.882 0 108.299 47.51 108.299 105.961v111.245l-.003.156c-.173 9.68-8.426 17.7-18.857 17.7s-18.684-8.02-18.857-17.7l-.061-3.438h-6.883l-.061 3.438c-.173 9.68-8.426 17.7-18.857 17.7s-18.684-8.02-18.857-17.7l-.062-3.438h-6.882l-.062 3.438c-.173 9.68-8.426 17.7-18.857 17.7-10.43 0-18.683-8.02-18.856-17.7l-.062-3.438h-6.883l-.061 3.438c-.173 9.68-8.426 17.7-18.857 17.7-10.43 0-18.684-8.02-18.857-17.7l-.061-3.438h-6.883l-.061 3.438c-.173 9.68-8.426 17.7-18.857 17.7s-18.684-8.02-18.857-17.7z" fill="#7BB361" stroke="#FFB8C6" stroke-width="7"/><path d="M181.528 119.772c0 .968-.114 1.978-.341 3.027a17.95 17.95 0 01-.965 3.076 16.872 16.872 0 01-1.477 2.82 12.044 12.044 0 01-1.929 2.307l-1.55-.842c.236-.423.452-.899.647-1.428.195-.529.374-1.086.537-1.672.163-.586.305-1.189.427-1.807.123-.619.224-1.233.306-1.843a25.1 25.1 0 00.195-1.795c.041-.578.061-1.119.061-1.623 0-.285-.008-.594-.024-.928a8.51 8.51 0 00-.11-1.001 5.075 5.075 0 00-.232-.952 2.734 2.734 0 00-.44-.818 1.885 1.885 0 00-.683-.574c-.269-.146-.594-.219-.977-.219-.374 0-.696.101-.964.305a2.58 2.58 0 00-.672.769 4.58 4.58 0 00-.451 1.074c-.106.399-.187.802-.244 1.208-.057.399-.098.782-.122 1.148-.017.366-.025.675-.025.928V128h-4.114v-6.568c0-.285.004-.626.013-1.025.008-.407-.005-.83-.037-1.27a9.867 9.867 0 00-.159-1.306 4.12 4.12 0 00-.366-1.172 2.192 2.192 0 00-.671-.83c-.285-.22-.643-.329-1.075-.329-.366 0-.675.101-.927.305a2.574 2.574 0 00-.623.793c-.163.318-.293.68-.39 1.087-.09.398-.159.801-.208 1.208-.041.399-.065.781-.073 1.148-.008.358-.012.655-.012.891V128h-4.139v-14.1h1.587l1.514 3.284c.342-1.139.879-2.026 1.611-2.661.741-.643 1.721-.964 2.942-.964 1.099 0 2.01.227 2.735.683.724.456 1.293 1.196 1.709 2.222.236-.448.496-.851.781-1.209.293-.358.614-.663.964-.915a4.101 4.101 0 011.184-.574 4.674 4.674 0 011.428-.207c.961 0 1.779.158 2.454.476.684.309 1.241.74 1.672 1.294.432.553.745 1.212.94 1.977a9.82 9.82 0 01.293 2.466zM156.26 128h-4.126v-1.685c-.488.667-1.078 1.164-1.77 1.489-.684.318-1.437.476-2.259.476-1.074 0-2.034-.191-2.88-.573a6.317 6.317 0 01-2.149-1.563 6.96 6.96 0 01-1.343-2.344 8.767 8.767 0 01-.463-2.881c0-1.025.154-1.985.463-2.88a6.818 6.818 0 011.343-2.332 6.244 6.244 0 012.149-1.575c.846-.382 1.806-.573 2.88-.573a4.868 4.868 0 012.906.94c.415.293.777.651 1.086 1.074.318.415.566.879.745 1.391l1.831-3.064h1.587V128zm-4.151-7.081c0-.366-.02-.752-.061-1.159a8.524 8.524 0 00-.183-1.209 5.773 5.773 0 00-.378-1.135 3.34 3.34 0 00-.611-.964 2.605 2.605 0 00-.891-.672c-.35-.162-.756-.244-1.22-.244-.464 0-.867.086-1.209.256a2.638 2.638 0 00-.879.672 3.759 3.759 0 00-.61.964 6.651 6.651 0 00-.366 1.148c-.09.398-.155.801-.196 1.208a14.22 14.22 0 00-.048 1.135c0 .359.016.741.048 1.148.041.407.106.81.196 1.208.089.399.211.782.366 1.148.163.366.366.692.61.976.244.277.537.501.879.672.342.163.745.244 1.209.244.423 0 .797-.086 1.123-.256.333-.179.622-.415.866-.708.253-.293.464-.627.635-1.001.171-.375.309-.761.415-1.16a8.96 8.96 0 00.305-2.271zm-11.486-5.773l-2.32 3.845a16.282 16.282 0 00-.378-1.099 5.95 5.95 0 00-.574-1.135 3.304 3.304 0 00-.818-.891 1.75 1.75 0 00-1.098-.366c-.383 0-.717.097-1.001.292a2.577 2.577 0 00-.708.77 4.725 4.725 0 00-.489 1.062c-.122.39-.219.789-.293 1.196-.065.399-.11.785-.134 1.159-.024.367-.037.684-.037.953V128h-4.138v-14.1h1.587l1.673 3.284a9.06 9.06 0 01.781-1.453c.293-.447.63-.83 1.013-1.147a4.28 4.28 0 011.294-.757 4.764 4.764 0 011.648-.268c.317 0 .671.028 1.062.085.39.049.773.138 1.147.269.375.122.721.284 1.038.488.317.203.566.452.745.745zm-15.442 11.157a9.891 9.891 0 01-.501 3.174 7.744 7.744 0 01-1.452 2.6 6.787 6.787 0 01-2.344 1.77c-.92.439-1.97.659-3.15.659-.651 0-1.31-.073-1.977-.22a7.636 7.636 0 01-1.88-.683 6.336 6.336 0 01-1.587-1.16 5.134 5.134 0 01-1.099-1.648l1.783-.671c.154.398.354.765.598 1.098.252.334.541.619.866.855.326.244.684.431 1.075.561.39.139.801.208 1.233.208.813 0 1.493-.167 2.038-.501a3.924 3.924 0 001.331-1.306 5.726 5.726 0 00.72-1.831c.146-.675.22-1.363.22-2.063v-.83c-.489.667-1.079 1.164-1.77 1.489-.684.318-1.437.476-2.259.476-1.074 0-2.034-.191-2.88-.573a6.317 6.317 0 01-2.149-1.563 6.96 6.96 0 01-1.343-2.344 8.767 8.767 0 01-.464-2.881c0-1.025.155-1.985.464-2.88a6.818 6.818 0 011.343-2.332 6.244 6.244 0 012.149-1.575c.846-.382 1.806-.573 2.88-.573a4.868 4.868 0 012.906.94c.415.293.777.651 1.086 1.074.317.415.566.879.745 1.391l1.831-3.064h1.587v12.403zm-4.151-5.384c0-.366-.02-.752-.061-1.159a8.524 8.524 0 00-.183-1.209 5.84 5.84 0 00-.378-1.135 3.34 3.34 0 00-.611-.964 2.605 2.605 0 00-.891-.672 2.878 2.878 0 00-1.22-.244c-.464 0-.867.086-1.209.256a2.638 2.638 0 00-.879.672 3.759 3.759 0 00-.61.964 6.651 6.651 0 00-.366 1.148c-.09.398-.155.801-.196 1.208-.032.399-.049.777-.049 1.135 0 .359.017.741.049 1.148.041.407.106.81.196 1.208.089.399.211.782.366 1.148.163.366.366.692.61.976.244.277.537.501.879.672.342.163.745.244 1.209.244.423 0 .797-.086 1.123-.256.333-.179.622-.415.866-.708.253-.293.464-.627.635-1.001.171-.375.309-.761.415-1.16a8.96 8.96 0 00.305-2.271zM107.529 128h-4.126v-1.685c-.488.667-1.078 1.164-1.77 1.489-.683.318-1.436.476-2.258.476-1.074 0-2.034-.191-2.88-.573a6.32 6.32 0 01-2.15-1.563 6.949 6.949 0 01-1.342-2.344 8.762 8.762 0 01-.464-2.881 8.76 8.76 0 01.464-2.88 6.808 6.808 0 011.343-2.332 6.247 6.247 0 012.148-1.575c.847-.382 1.807-.573 2.881-.573a4.86 4.86 0 011.55.244 4.7 4.7 0 011.355.696c.415.293.777.651 1.087 1.074.317.415.565.879.744 1.391l1.831-3.064h1.587V128zm-4.15-7.081c0-.366-.02-.752-.061-1.159a8.821 8.821 0 00-.183-1.209 5.842 5.842 0 00-.379-1.135 3.337 3.337 0 00-.61-.964 2.605 2.605 0 00-.891-.672c-.35-.162-.757-.244-1.221-.244-.464 0-.867.086-1.208.256a2.64 2.64 0 00-.88.672 3.749 3.749 0 00-.61.964 6.73 6.73 0 00-.366 1.148c-.09.398-.154.801-.195 1.208-.033.399-.049.777-.049 1.135 0 .359.016.741.049 1.148.04.407.106.81.195 1.208.09.399.212.782.366 1.148.163.366.367.692.61.976.245.277.538.501.88.672.342.163.744.244 1.208.244a2.39 2.39 0 001.123-.256c.334-.179.623-.415.867-.708a4.21 4.21 0 00.635-1.001c.171-.375.309-.761.415-1.16a8.96 8.96 0 00.305-2.271zM87.607 128H83.47v-12.463h-2.563v-1.636h2.563v-5.188h4.138v5.188h4.273v1.636h-4.273V128zm-7.922-4.505c0 .619-.09 1.168-.269 1.648a4.07 4.07 0 01-.732 1.257c-.31.35-.675.647-1.099.892a6.79 6.79 0 01-1.367.573c-.48.147-.984.253-1.513.318a12.9 12.9 0 01-1.575.097c-.7 0-1.319-.044-1.856-.134a7.457 7.457 0 01-1.538-.427 9.225 9.225 0 01-1.465-.781 28.759 28.759 0 01-1.61-1.16l2.404-1.966c.22.416.509.794.867 1.136a7.92 7.92 0 001.135.866c.39.245.769.432 1.135.562.366.13.663.195.891.195.187 0 .399-.004.635-.012.236-.016.476-.041.72-.073.244-.041.485-.098.72-.171a2.31 2.31 0 00.623-.293 1.356 1.356 0 00.61-1.172c0-.277-.073-.517-.22-.72a1.945 1.945 0 00-.549-.549 3.497 3.497 0 00-.78-.391 13.222 13.222 0 00-1.746-.488 17.778 17.778 0 01-.72-.183c-.375-.106-.77-.212-1.185-.318-.415-.114-.826-.24-1.233-.378a9.573 9.573 0 01-1.172-.513 4.48 4.48 0 01-.976-.696 3.353 3.353 0 01-.672-.964c-.162-.374-.244-.81-.244-1.306 0-.912.18-1.673.537-2.283a4.248 4.248 0 011.44-1.477 6.021 6.021 0 012.027-.793 11.469 11.469 0 012.307-.232c.537 0 1.103.057 1.697.17a9.142 9.142 0 011.733.489 8.581 8.581 0 011.575.781c.489.309.895.663 1.22 1.062l-2.404 1.978a4.173 4.173 0 00-.708-1.258 3.996 3.996 0 00-.94-.854 3.694 3.694 0 00-1.037-.501 3.379 3.379 0 00-.977-.158c-.293 0-.623.012-.989.036a3.935 3.935 0 00-1.037.208 2.11 2.11 0 00-.818.525c-.22.227-.33.545-.33.952 0 .293.065.545.195.757.139.203.318.382.538.537.22.146.468.272.744.378.285.098.574.187.867.269.293.073.578.138.854.195.277.057.525.118.745.183.374.106.77.216 1.184.33.423.105.838.232 1.245.378a8.18 8.18 0 011.172.501 3.86 3.86 0 011.001.695c.285.277.513.603.684.977.17.366.256.802.256 1.306zm-14.855-3.577c0 .953-.119 1.945-.355 2.979a17.803 17.803 0 01-.964 3.04 16.705 16.705 0 01-1.49 2.795 11.994 11.994 0 01-1.904 2.27l-1.55-.842c.22-.407.427-.862.623-1.367.195-.505.37-1.038.524-1.599.163-.57.306-1.156.428-1.758.13-.602.236-1.196.317-1.782.09-.594.155-1.168.195-1.721a18.15 18.15 0 00.073-1.563c0-.317-.012-.655-.036-1.013a6.987 6.987 0 00-.159-1.086 6.217 6.217 0 00-.305-1.05 2.96 2.96 0 00-.525-.879 2.425 2.425 0 00-.781-.611c-.301-.154-.66-.231-1.074-.231a2.1 2.1 0 00-1.087.28 2.942 2.942 0 00-.842.72 4.647 4.647 0 00-.635 1.014c-.17.382-.313.777-.427 1.184a8.945 8.945 0 00-.232 1.184 8.5 8.5 0 00-.073 1.05V128h-4.138v-14.1H52l1.892 3.284a6.684 6.684 0 01.854-1.489 5.74 5.74 0 011.16-1.148 5.06 5.06 0 011.428-.732 5.525 5.525 0 011.709-.256c.977 0 1.827.158 2.551.476a4.89 4.89 0 011.807 1.33c.48.562.838 1.233 1.074 2.014.236.774.354 1.62.354 2.539zM46.836 128H41.99v-17.578h4.846V128z" fill="#FDFDFD"/></svg>