<svg width="197" height="64" viewBox="0 0 197 64" fill="none" xmlns="http://www.w3.org/2000/svg">
<path d="M197 19.0585L107.469 19.0585L107.469 15.1899L197 15.1899V19.0585Z" fill="#FFB8C6"/>
<path d="M107.469 19.0585C107.469 15.1899 130.495 16.0624 155.219 16.0624C179.942 16.0624 197 15.1899 197 19.0585C197 43.879 176.958 64 152.234 64C127.511 64 107.469 43.879 107.469 19.0585Z" fill="#FFB8C6"/>
<path d="M137.627 15.9359C137.627 24.2638 130.876 31.0148 122.548 31.0148C114.22 31.0148 107.469 24.2638 107.469 15.9359C107.469 7.60805 114.22 0.856979 122.548 0.856979C130.876 0.856979 137.627 7.60805 137.627 15.9359Z" fill="#FFB8C6"/>
<path d="M166.842 15.9359C166.842 24.2638 160.302 31.0148 152.234 31.0148C144.167 31.0148 137.627 24.2638 137.627 15.9359C137.627 7.60805 144.167 0.856979 152.234 0.856979C160.302 0.856979 166.842 7.60805 166.842 15.9359Z" fill="#FFB8C6"/>
<path d="M197 15.9359C197 24.2638 190.249 31.0148 181.921 31.0148C173.593 31.0148 166.842 24.2638 166.842 15.9359C166.842 7.60805 173.593 0.856979 181.921 0.856979C190.249 0.856979 197 7.60805 197 15.9359Z" fill="#FFB8C6"/>
<path d="M120.825 30.0282L114.64 44.9893C113.933 46.6975 113.143 48.386 112.269 50.0549C111.405 51.7336 110.468 53.3436 109.457 54.8849L107.513 53.7068C107.758 53.2651 108.048 52.7546 108.382 52.1754C108.716 51.5962 109.044 50.9973 109.368 50.3789C109.692 49.7604 109.992 49.1468 110.267 48.5382C110.542 47.9394 110.753 47.3896 110.9 46.8889L103.464 30.0282H108.441L113.492 41.5288L117.379 30.0282H120.825Z" fill="#F8F0DD"/>
<path d="M103.508 31.5302L100.71 36.1688C100.592 35.7761 100.44 35.3343 100.253 34.8435C100.067 34.3526 99.8361 33.8961 99.5613 33.474C99.2864 33.042 98.9575 32.6837 98.5746 32.399C98.1918 32.1045 97.75 31.9573 97.2493 31.9573C96.7879 31.9573 96.3854 32.0751 96.0419 32.3107C95.7081 32.5463 95.4234 32.8555 95.1878 33.2384C94.9522 33.6114 94.7558 34.0385 94.5988 34.5195C94.4515 34.9907 94.3337 35.4718 94.2453 35.9626C94.1668 36.4436 94.1128 36.9099 94.0834 37.3615C94.0539 37.8033 94.0392 38.1862 94.0392 38.5101V47.0362H89.0472V30.0282H90.9616L92.9789 33.9894C93.2538 33.3513 93.568 32.7672 93.9214 32.237C94.2748 31.6971 94.6822 31.2357 95.1436 30.8528C95.605 30.4602 96.1253 30.1558 96.7045 29.9399C97.2935 29.7239 97.9562 29.6159 98.6924 29.6159C99.0753 29.6159 99.5024 29.6503 99.9736 29.719C100.445 29.7779 100.906 29.8859 101.358 30.0429C101.809 30.1902 102.227 30.3865 102.609 30.632C102.992 30.8774 103.292 31.1768 103.508 31.5302Z" fill="#F8F0DD"/>
<path d="M73.6738 38.9666C74.2824 39.104 74.8911 39.212 75.4998 39.2906C76.1084 39.3691 76.722 39.4084 77.3404 39.4084C77.9884 39.4084 78.5872 39.3495 79.137 39.2317C79.6965 39.104 80.1776 38.8979 80.5801 38.6132C80.9924 38.3187 81.3163 37.9309 81.5519 37.4499C81.7876 36.9688 81.9054 36.37 81.9054 35.6534C81.9054 35.0742 81.8268 34.544 81.6697 34.063C81.5127 33.582 81.2771 33.1697 80.9629 32.8261C80.6586 32.4825 80.2806 32.2174 79.8291 32.0309C79.3775 31.8346 78.8523 31.7364 78.2534 31.7364C77.6939 31.7364 77.1883 31.8395 76.7367 32.0456C76.2949 32.2518 75.9023 32.5316 75.5587 32.885C75.2249 33.2286 74.9353 33.6311 74.6899 34.0925C74.4542 34.5539 74.2579 35.0349 74.1008 35.5356C73.9438 36.0362 73.8309 36.5418 73.7621 37.0523C73.6934 37.5628 73.6591 38.0438 73.6591 38.4954C73.6591 38.5739 73.6591 38.6525 73.6591 38.731C73.6591 38.8095 73.664 38.8881 73.6738 38.9666ZM85.9401 35.6092C85.9401 36.3062 85.8273 36.9296 85.6015 37.4793C85.3757 38.0193 85.0664 38.4954 84.6738 38.9077C84.2909 39.32 83.8442 39.6685 83.3337 39.9532C82.8232 40.2379 82.2784 40.4735 81.6992 40.66C81.12 40.8368 80.5212 40.9644 79.9027 41.0429C79.294 41.1214 78.7001 41.1607 78.1209 41.1607C77.3846 41.1607 76.6582 41.1116 75.9415 41.0135C75.2249 40.9055 74.5181 40.7386 73.821 40.5128C73.929 41.1607 74.1008 41.7792 74.3364 42.3682C74.5721 42.9474 74.8862 43.4579 75.2789 43.8997C75.6716 44.3316 76.1526 44.6752 76.722 44.9304C77.3012 45.1857 77.9835 45.3133 78.7688 45.3133C79.2891 45.3133 79.7849 45.2348 80.2561 45.0777C80.7273 44.9206 81.1593 44.6997 81.5519 44.4151C81.9446 44.1304 82.2882 43.7917 82.5827 43.399C82.8871 43.0063 83.1325 42.5695 83.319 42.0884L85.4689 42.8836C85.145 43.6591 84.6983 44.3316 84.1289 44.901C83.5693 45.4606 82.9312 45.9269 82.2146 46.2999C81.5078 46.6631 80.7519 46.9331 79.9469 47.1098C79.1517 47.2865 78.3614 47.3749 77.5761 47.3749C76.2802 47.3749 75.0825 47.1589 73.983 46.727C72.8835 46.2852 71.9362 45.6716 71.141 44.8863C70.3458 44.1009 69.7224 43.1634 69.2709 42.0737C68.8193 40.984 68.5935 39.7912 68.5935 38.4954C68.5935 37.1995 68.8193 36.0068 69.2709 34.9171C69.7224 33.8274 70.3458 32.8899 71.141 32.1045C71.9362 31.3192 72.8835 30.7105 73.983 30.2786C75.0825 29.8368 76.2802 29.6159 77.5761 29.6159C78.2043 29.6159 78.8474 29.6601 79.5051 29.7484C80.1628 29.8368 80.8009 29.9791 81.4194 30.1755C82.0379 30.362 82.622 30.6074 83.1718 30.9118C83.7215 31.2161 84.1976 31.594 84.6001 32.0456C85.0124 32.4874 85.3364 33.0028 85.572 33.5918C85.8174 34.1808 85.9401 34.8533 85.9401 35.6092Z" fill="#F8F0DD"/>
<path d="M62.88 47.0362H57.888V32.0014H54.7957V30.0282H57.888V23.7699H62.88V30.0282H68.0339V32.0014H62.88V47.0362Z" fill="#F8F0DD"/>
<path d="M49.0086 47.0362H44.0166V32.0014H40.9242V30.0282H44.0166V23.7699H49.0086V30.0282H54.1625V32.0014H49.0086V47.0362Z" fill="#F8F0DD"/>
<path d="M39.8935 38.4954C39.8935 39.3789 39.7757 40.2085 39.54 40.984C39.3044 41.7595 38.9756 42.4762 38.5534 43.1339C38.1411 43.7917 37.6405 44.3856 37.0514 44.9157C36.4624 45.436 35.8145 45.8778 35.1077 46.241C34.4107 46.6042 33.6597 46.884 32.8547 47.0804C32.0595 47.2767 31.2398 47.3749 30.3955 47.3749C29.5512 47.3749 28.7315 47.2767 27.9363 47.0804C27.1412 46.884 26.3902 46.6042 25.6833 46.241C24.9863 45.8778 24.3433 45.436 23.7543 44.9157C23.1653 44.3856 22.6597 43.7917 22.2376 43.1339C21.8252 42.4762 21.5013 41.7595 21.2657 40.984C21.0301 40.1986 20.9123 39.3691 20.9123 38.4954C20.9123 37.6217 21.0301 36.797 21.2657 36.0215C21.5013 35.2361 21.8252 34.5146 22.2376 33.8569C22.6597 33.1991 23.1653 32.6101 23.7543 32.0898C24.3433 31.5597 24.9863 31.113 25.6833 30.7498C26.3902 30.3865 27.1412 30.1068 27.9363 29.9104C28.7315 29.7141 29.5512 29.6159 30.3955 29.6159C31.2398 29.6159 32.0595 29.7141 32.8547 29.9104C33.6597 30.1068 34.4107 30.3865 35.1077 30.7498C35.8145 31.113 36.4624 31.5597 37.0514 32.0898C37.6405 32.6101 38.1411 33.1991 38.5534 33.8569C38.9756 34.5146 39.3044 35.2361 39.54 36.0215C39.7757 36.797 39.8935 37.6217 39.8935 38.4954ZM34.8279 38.4954C34.8279 38.0242 34.7984 37.5284 34.7395 37.0081C34.6904 36.478 34.6021 35.9626 34.4745 35.4619C34.3468 34.9515 34.1701 34.4655 33.9443 34.0041C33.7284 33.5329 33.4584 33.1255 33.1344 32.7819C32.8105 32.4285 32.4227 32.1487 31.9711 31.9425C31.5195 31.7266 30.9943 31.6186 30.3955 31.6186C29.8261 31.6186 29.3205 31.7266 28.8788 31.9425C28.437 32.1585 28.0492 32.4481 27.7155 32.8113C27.3915 33.1648 27.1166 33.5771 26.8908 34.0483C26.6749 34.5195 26.4981 35.0104 26.3607 35.5208C26.2233 36.0215 26.1251 36.532 26.0662 37.0523C26.0073 37.5628 25.9778 38.0438 25.9778 38.4954C25.9778 38.947 26.0073 39.4329 26.0662 39.9532C26.1251 40.4637 26.2233 40.9742 26.3607 41.4847C26.4981 41.9952 26.6749 42.486 26.8908 42.9572C27.1166 43.4186 27.3915 43.8309 27.7155 44.1942C28.0492 44.5476 28.437 44.8323 28.8788 45.0482C29.3205 45.2642 29.8261 45.3722 30.3955 45.3722C30.9845 45.3722 31.5048 45.2691 31.9564 45.063C32.408 44.847 32.7958 44.5623 33.1197 44.2089C33.4535 43.8555 33.7284 43.4481 33.9443 42.9867C34.1603 42.5253 34.3321 42.0393 34.4597 41.5288C34.5972 41.0184 34.6904 40.503 34.7395 39.9827C34.7984 39.4624 34.8279 38.9666 34.8279 38.4954Z" fill="#F8F0DD"/>
<path d="M6.39291 47.0362H0.546875V25.8315H12.0033C12.9948 25.8315 13.9422 25.964 14.8454 26.229C15.7583 26.4941 16.5633 26.8966 17.2603 27.4365C17.9573 27.9667 18.512 28.6391 18.9243 29.4539C19.3465 30.2589 19.5575 31.2063 19.5575 32.296C19.5575 32.9831 19.4593 33.6311 19.263 34.2397C19.0667 34.8386 18.7918 35.3883 18.4384 35.889C18.0948 36.3896 17.6874 36.8412 17.2162 37.2437C16.7449 37.6462 16.2296 37.9849 15.67 38.2598C15.1104 38.5347 14.5165 38.7457 13.8882 38.893C13.2697 39.0402 12.6414 39.1139 12.0033 39.1139H6.39291V47.0362ZM13.6379 32.296C13.6379 30.9314 13.2894 29.8613 12.5923 29.0858C11.9052 28.3004 10.8646 27.9077 9.47054 27.9077H6.39291V37.1112H9.47054C10.2166 37.1112 10.8498 36.9934 11.3701 36.7578C11.9002 36.5124 12.3322 36.1737 12.666 35.7417C12.9998 35.3098 13.2452 34.8042 13.4023 34.225C13.5593 33.636 13.6379 32.993 13.6379 32.296Z" fill="#F8F0DD"/>
<path d="M178.021 42.7387C177.569 43.9701 176.853 45.0131 175.872 45.8676C174.892 46.6969 173.975 47.2624 173.121 47.564C172.291 47.8655 171.537 48.0163 170.859 48.0163C169.024 48.0163 168.107 47.3001 168.107 45.8676C168.107 44.4099 168.911 43.0905 170.519 41.9094C171.273 41.3565 172.09 40.9921 172.97 40.8161C173.095 40.8161 173.158 40.8664 173.158 40.9669C173.158 41.0172 173.133 41.0675 173.083 41.1177C172.455 41.5952 171.851 42.3366 171.273 43.3419C170.72 44.3471 170.444 45.2267 170.444 45.9807C170.444 46.7346 170.758 47.1116 171.386 47.1116C171.889 47.1116 172.379 46.9105 172.857 46.5084C173.359 46.0812 173.736 45.654 173.988 45.2267L174.365 44.6236C174.867 43.8194 175.282 42.5376 175.609 40.7784C175.96 39.0192 176.187 37.4611 176.287 36.104L176.4 34.0683C176.4 33.8673 176.362 33.7667 176.287 33.7667L176.136 33.8421L172.404 38.215C172.128 38.5417 171.939 38.7051 171.839 38.7051C171.713 38.7051 171.65 38.6171 171.65 38.4412C171.65 38.1145 171.738 37.8632 171.914 37.6873L172.253 37.2726C175.118 34.0557 176.752 32.1081 177.154 31.4295C177.531 30.8515 178.084 30.3488 178.813 29.9216C179.516 29.5195 180.346 29.3185 181.301 29.3185C181.552 29.3185 181.678 29.419 181.678 29.62C181.678 29.7457 181.577 29.8588 181.376 29.9593C181.301 29.9844 181.2 30.0473 181.075 30.1478C180.974 30.2232 180.773 30.4242 180.471 30.7509C180.195 31.0777 179.944 31.4546 179.718 31.8819C179.491 32.3091 179.29 32.9123 179.114 33.6913C178.938 34.4453 178.851 35.2872 178.851 36.2171C178.851 39.1072 178.574 41.2811 178.021 42.7387Z" fill="#E9627B"/>
<path d="M166.942 39.9491C165.56 41.658 164.278 43.1534 163.097 44.4351C161.941 45.6917 161.124 46.5336 160.647 46.9608L159.931 47.564C159.528 47.8907 159.214 48.054 158.988 48.054C158.712 48.054 158.573 47.8278 158.573 47.3755C158.573 46.2948 159.151 43.8947 160.308 40.1753L160.081 40.2884C158.8 41.8717 157.593 43.279 156.462 44.5105C155.357 45.7168 154.565 46.5336 154.087 46.9608L153.371 47.564C152.969 47.8907 152.655 48.054 152.429 48.054C152.152 48.054 152.014 47.8278 152.014 47.3755C152.014 46.1189 152.567 43.8194 153.673 40.4769C154.779 37.1092 155.859 34.4327 156.915 32.4473C157.191 31.9196 157.593 31.4672 158.121 31.0902C158.649 30.7133 159.214 30.5248 159.817 30.5248C159.993 30.5248 160.081 30.6002 160.081 30.7509C160.081 30.9017 159.981 31.1782 159.78 31.5803C159.076 33.0379 158.209 35.149 157.179 37.9134C156.148 40.6528 155.633 42.5502 155.633 43.6057C155.633 43.7314 155.658 43.7942 155.708 43.7942C155.809 43.7942 155.985 43.656 156.236 43.3796C156.538 43.1031 156.927 42.7261 157.405 42.2486C157.882 41.7711 158.611 40.9292 159.591 39.7229C160.571 38.4915 161.263 37.4108 161.665 36.4809L163.474 32.4473C163.876 31.7939 164.329 31.3164 164.831 31.0148C165.359 30.6881 165.824 30.5248 166.226 30.5248C166.528 30.5248 166.678 30.6002 166.678 30.7509C166.678 30.8515 166.565 31.1279 166.339 31.5803C164.153 36.1291 162.783 40.0119 162.23 43.2288C162.205 43.3293 162.192 43.4298 162.192 43.5303C162.192 43.6811 162.23 43.7565 162.306 43.7565C162.481 43.7565 163.11 43.1785 164.19 42.0224C165.271 40.8413 166 39.9491 166.377 39.3459C166.427 39.2454 166.452 39.1449 166.452 39.0444C166.352 38.8182 166.301 38.5166 166.301 38.1396C166.301 36.6317 167.055 34.9605 168.563 33.1259C170.096 31.2661 171.642 30.0473 173.2 29.4692C173.351 29.419 173.451 29.3938 173.502 29.3938C173.652 29.3938 173.728 29.4567 173.728 29.5823C173.703 30.286 171.805 33.3144 168.035 38.6674C167.96 38.7679 167.922 38.8433 167.922 38.8936C167.922 38.9941 167.96 39.0569 168.035 39.0821C168.337 39.2328 168.639 39.3082 168.94 39.3082C170.071 39.3082 171.428 38.3658 173.012 36.4809C173.062 36.4307 173.1 36.4055 173.125 36.4055C173.25 36.4055 173.313 36.5438 173.313 36.8202C173.313 37.0967 173.012 37.5742 172.408 38.2527C171.303 39.5093 170.033 40.1376 168.601 40.1376C168.098 40.1376 167.608 40.0371 167.131 39.836L166.942 39.9491Z" fill="#E9627B"/>
<path d="M148.692 44.6613C146.606 46.5713 145.174 47.5263 144.395 47.5263C144.043 47.5263 143.867 47.3252 143.867 46.9231C143.867 46.4205 144.081 45.654 144.508 44.6236C144.96 43.5932 145.413 42.6884 145.865 41.9094L146.544 40.7407C146.644 40.5648 146.694 40.4517 146.694 40.4015C146.694 40.3512 146.669 40.3261 146.619 40.3261C146.518 40.3261 146.33 40.4643 146.054 40.7407C145.3 41.5701 144.433 42.4623 143.452 43.4173C142.497 44.3471 141.718 45.0759 141.115 45.6037L140.248 46.3576C139.268 47.1116 138.514 47.4886 137.986 47.4886C137.433 47.4886 137.157 47.0613 137.157 46.2069C137.157 45.7796 137.283 45.1262 137.534 44.2466C137.76 43.367 137.936 42.7764 138.062 42.4748C138.64 41.0675 139.356 39.6978 140.21 38.3658C141.09 37.0338 142.12 35.7647 143.302 34.5584C144.483 33.3269 145.852 32.3342 147.411 31.5803C148.994 30.8263 150.627 30.4494 152.311 30.4494C153.719 30.4494 154.422 30.663 154.422 31.0902C154.422 31.3415 154.108 31.4672 153.48 31.4672C151.168 31.4672 148.994 32.4599 146.958 34.4453C144.948 36.4055 143.314 38.6674 142.058 41.2308C141.706 41.9345 141.53 42.5251 141.53 43.0026C141.53 43.279 141.618 43.4173 141.794 43.4173C142.095 43.4173 142.485 43.2036 142.962 42.7764C143.264 42.4999 143.666 42.1355 144.169 41.6832C144.696 41.2308 145.538 40.3638 146.694 39.0821C147.85 37.8003 148.768 36.6066 149.446 35.5008C149.547 35.2998 149.698 35.061 149.899 34.7846C150.125 34.5081 150.54 34.1437 151.143 33.6913C151.746 33.2138 152.349 32.9751 152.952 32.9751C153.279 32.9751 153.442 33.0631 153.442 33.239C153.442 33.2892 153.405 33.3772 153.329 33.5029C153.229 33.7039 152.94 34.2065 152.462 35.0107C152.01 35.815 151.582 36.5815 151.18 37.3103C150.778 38.014 150.351 38.793 149.899 39.6475C149.446 40.4769 149.082 41.1931 148.805 41.7963C148.554 42.3994 148.428 42.8015 148.428 43.0026C148.428 43.1534 148.491 43.2288 148.617 43.2288C148.994 43.2288 149.911 42.4999 151.369 41.0423C152.475 39.8863 153.769 38.4663 155.252 36.7825C155.327 36.7071 155.39 36.6694 155.44 36.6694C155.49 36.6694 155.516 36.7197 155.516 36.8202C155.516 37.2977 155.327 37.7627 154.95 38.215C152.487 40.9544 150.401 43.1031 148.692 44.6613Z" fill="#E9627B"/>
<path d="M133.631 34.86C133.455 35.1867 132.399 37.3103 130.464 41.2308C129.183 43.8445 127.888 45.8173 126.581 47.1493C125.3 48.5064 124.32 49.1849 123.641 49.1849C123.339 49.1849 123.189 49.0467 123.189 48.7703L123.302 48.3179C123.578 47.564 124.433 45.7922 125.865 43.0026C127.323 40.213 128.68 37.7375 129.936 35.5762C131.118 33.5154 132.274 31.53 133.405 29.62C134.536 27.6849 135.377 26.265 135.93 25.3602L136.76 24.0031C136.81 23.9277 136.873 23.8272 136.948 23.7015C137.024 23.5759 137.187 23.3497 137.438 23.023C137.715 22.6963 137.991 22.4198 138.268 22.1937C138.544 21.9423 138.871 21.7162 139.248 21.5151C139.625 21.314 139.989 21.2135 140.341 21.2135C140.668 21.2135 140.831 21.3015 140.831 21.4774C140.831 21.7036 140.68 22.0303 140.379 22.4575C138.494 25.6744 136.483 29.331 134.347 33.4275C134.322 33.4777 134.309 33.528 134.309 33.5782C134.309 33.6536 134.36 33.6913 134.46 33.6913C136.043 33.6913 137.501 33.3898 138.833 32.7866C140.19 32.1834 141.283 31.4044 142.113 30.4494C142.967 29.4692 143.621 28.4263 144.073 27.3205C144.55 26.2147 144.789 25.1215 144.789 24.0408C144.789 22.5078 144.211 21.3517 143.055 20.5727C141.899 19.7936 140.542 19.4041 138.984 19.4041C137.803 19.4041 136.647 19.58 135.516 19.9318C134.41 20.2837 133.43 20.8868 132.575 21.7413C131.746 22.5958 131.331 23.6136 131.331 24.7948C131.331 25.4985 131.52 26.177 131.897 26.8304C132.022 27.0817 132.085 27.2577 132.085 27.3582C132.085 27.509 131.985 27.5844 131.784 27.5844C131.733 27.5844 131.633 27.5592 131.482 27.509C131.407 27.4838 131.306 27.4336 131.18 27.3582C131.055 27.2828 130.829 27.132 130.502 26.9058C130.175 26.6796 129.886 26.4409 129.635 26.1896C129.384 25.9383 129.157 25.6115 128.956 25.2094C128.755 24.7822 128.655 24.355 128.655 23.9277C128.655 22.3696 129.61 21.0627 131.52 20.0072C133.455 18.9517 135.641 18.4239 138.079 18.4239C139.26 18.4239 140.379 18.5244 141.434 18.7255C142.515 18.9266 143.558 19.2533 144.563 19.7056C145.593 20.1329 146.41 20.7612 147.013 21.5905C147.616 22.4198 147.918 23.4 147.918 24.5309C147.918 26.2147 147.478 27.7352 146.599 29.0923C145.744 30.4242 144.613 31.4923 143.206 32.2965C141.824 33.0756 140.341 33.6788 138.758 34.106C137.174 34.5081 135.578 34.7092 133.97 34.7092C133.945 34.684 133.907 34.6715 133.857 34.6715C133.756 34.6715 133.681 34.7343 133.631 34.86Z" fill="#E9627B"/>
</svg>
