<svg width="197" height="64" fill="none" xmlns="http://www.w3.org/2000/svg"><path d="M197 19.058h-89.531V15.19H197v3.868z" fill="#FFB8C6"/><path d="M107.469 19.058c0-3.868 23.026-2.996 47.75-2.996 24.723 0 41.781-.872 41.781 2.996C197 43.88 176.958 64 152.234 64c-24.723 0-44.765-20.121-44.765-44.942z" fill="#FFB8C6"/><path d="M137.627 15.936c0 8.328-6.751 15.079-15.079 15.079s-15.079-6.751-15.079-15.08c0-8.327 6.751-15.078 15.079-15.078s15.079 6.751 15.079 15.079zm29.215 0c0 8.328-6.54 15.079-14.608 15.079-8.067 0-14.607-6.751-14.607-15.08 0-8.327 6.54-15.078 14.607-15.078 8.068 0 14.608 6.751 14.608 15.079z" fill="#FFB8C6"/><path d="M197 15.936c0 8.328-6.751 15.079-15.079 15.079s-15.079-6.751-15.079-15.08c0-8.327 6.751-15.078 15.079-15.078S197 7.608 197 15.936z" fill="#FFB8C6"/><path d="M120.825 30.028L114.64 44.99a62.13 62.13 0 01-2.371 5.066 53.112 53.112 0 01-2.812 4.83l-1.944-1.178c.245-.442.535-.952.869-1.532.334-.579.662-1.178.986-1.796a35.25 35.25 0 00.899-1.84c.275-.6.486-1.15.633-1.65l-7.436-16.86h4.977l5.051 11.5 3.887-11.5h3.446zm-17.317 1.502l-2.798 4.639c-.118-.393-.27-.835-.457-1.325a7.135 7.135 0 00-.692-1.37 3.994 3.994 0 00-.986-1.075 2.113 2.113 0 00-1.326-.442c-.461 0-.864.118-1.207.354a3.112 3.112 0 00-.854.927c-.236.373-.432.8-.59 1.282-.147.47-.264.952-.353 1.443-.078.48-.132.947-.162 1.398-.03.442-.044.825-.044 1.15v8.525h-4.992V30.028h1.915l2.017 3.961c.275-.638.589-1.222.942-1.752a6.18 6.18 0 011.223-1.384 5.18 5.18 0 011.56-.913c.59-.216 1.252-.324 1.988-.324.383 0 .81.034 1.282.103a6.77 6.77 0 011.384.324 5.42 5.42 0 011.251.589c.383.245.683.545.899.898zm-29.834 7.437c.608.137 1.217.245 1.826.324.608.078 1.222.117 1.84.117.648 0 1.247-.059 1.797-.176a4.018 4.018 0 001.443-.619c.412-.294.736-.682.972-1.163s.353-1.08.353-1.797a5.1 5.1 0 00-.235-1.59 3.342 3.342 0 00-.707-1.237 3.038 3.038 0 00-1.134-.795c-.451-.196-.977-.295-1.576-.295-.56 0-1.065.104-1.516.31a3.976 3.976 0 00-1.178.839 5.272 5.272 0 00-.87 1.208 9.259 9.259 0 00-.927 2.96c-.069.51-.103.99-.103 1.442v.236c0 .078.005.157.015.236zm12.266-3.358c0 .697-.113 1.32-.338 1.87a4.656 4.656 0 01-.928 1.429 5.41 5.41 0 01-1.34 1.045c-.51.285-1.056.52-1.635.707a10.83 10.83 0 01-1.796.383c-.609.078-1.203.118-1.782.118-.736 0-1.463-.05-2.18-.148a13.305 13.305 0 01-2.12-.5c.108.648.28 1.266.515 1.855.236.58.55 1.09.943 1.532.393.432.874.775 1.443 1.03.58.256 1.262.383 2.047.383.52 0 1.016-.078 1.487-.235a4.757 4.757 0 002.327-1.679 5.2 5.2 0 00.736-1.31l2.15.795a6.197 6.197 0 01-1.34 2.017 7.747 7.747 0 01-1.914 1.399 9.301 9.301 0 01-2.268.81c-.795.176-1.586.265-2.37.265-1.297 0-2.495-.216-3.594-.648a8.506 8.506 0 01-2.842-1.84 8.447 8.447 0 01-1.87-2.813c-.452-1.09-.677-2.283-.677-3.579 0-1.295.225-2.488.677-3.578a8.447 8.447 0 011.87-2.813 8.321 8.321 0 012.842-1.825c1.1-.442 2.297-.663 3.593-.663.628 0 1.271.044 1.93.132.657.089 1.295.231 1.913.427a8.926 8.926 0 011.753.737c.55.304 1.026.682 1.428 1.134.412.441.736.957.972 1.546.245.589.368 1.261.368 2.017zM62.88 47.036h-4.992V32.001h-3.092v-1.973h3.092V23.77h4.992v6.258h5.154v1.973H62.88v15.035zm-13.871 0h-4.992V32.001h-3.093v-1.973h3.093V23.77h4.992v6.258h5.154v1.973h-5.154v15.035zm-9.115-8.541c0 .884-.118 1.714-.354 2.489a8.568 8.568 0 01-.987 2.15 8.364 8.364 0 01-1.502 1.782 9.441 9.441 0 01-1.943 1.325 9.966 9.966 0 01-2.253.84c-.795.196-1.615.294-2.46.294a10.333 10.333 0 01-4.712-1.134 9.613 9.613 0 01-1.929-1.325 8.736 8.736 0 01-1.516-1.782 8.89 8.89 0 01-.972-2.15 8.616 8.616 0 01-.354-2.489c0-.873.118-1.698.354-2.473.235-.786.56-1.507.972-2.165a8.402 8.402 0 011.516-1.767 9.292 9.292 0 011.93-1.34 10.328 10.328 0 017.17-.84 9.962 9.962 0 012.254.84 9.12 9.12 0 011.943 1.34c.59.52 1.09 1.11 1.502 1.767a8.51 8.51 0 01.987 2.165c.236.775.354 1.6.354 2.473zm-5.066 0c0-.47-.03-.967-.089-1.487a9.978 9.978 0 00-.264-1.546 7.383 7.383 0 00-.53-1.458 4.49 4.49 0 00-.81-1.222 3.57 3.57 0 00-1.164-.84c-.451-.215-.977-.323-1.576-.323-.569 0-1.075.108-1.516.323-.442.216-.83.506-1.164.87a5.037 5.037 0 00-.824 1.236 10.05 10.05 0 00-.825 3.004c-.059.51-.088.992-.088 1.443 0 .452.03.938.088 1.458.06.51.157 1.021.295 1.532.137.51.314 1.001.53 1.472.226.462.5.874.825 1.237.333.354.721.638 1.163.854.441.216.947.324 1.516.324.59 0 1.11-.103 1.561-.309.452-.216.84-.5 1.164-.854a4.61 4.61 0 00.824-1.222c.216-.462.388-.948.516-1.458.137-.51.23-1.026.28-1.546.058-.52.088-1.016.088-1.488zM6.393 47.036H.547V25.831h11.456c.992 0 1.94.133 2.842.398a7.16 7.16 0 012.415 1.207 5.763 5.763 0 011.664 2.018c.422.805.634 1.752.634 2.842 0 .687-.099 1.335-.295 1.944a6.18 6.18 0 01-.825 1.649c-.343.5-.75.952-1.222 1.355a7.385 7.385 0 01-1.546 1.016 8.347 8.347 0 01-1.782.633 8.113 8.113 0 01-1.885.22h-5.61v7.923zm7.245-14.74c0-1.365-.349-2.435-1.046-3.21-.687-.786-1.727-1.178-3.121-1.178H6.393v9.203H9.47c.746 0 1.379-.118 1.9-.353.53-.246.961-.584 1.295-1.016.334-.432.58-.938.736-1.517a7.475 7.475 0 00.236-1.929z" fill="#F8F0DD"/><path d="M178.021 42.739a7.517 7.517 0 01-2.149 3.129c-.98.829-1.897 1.394-2.751 1.696-.83.301-1.584.452-2.262.452-1.835 0-2.752-.716-2.752-2.148 0-1.458.804-2.778 2.412-3.959a6.143 6.143 0 012.451-1.093c.125 0 .188.05.188.15 0 .051-.025.102-.075.152-.628.477-1.232 1.219-1.81 2.224-.553 1.005-.829 1.885-.829 2.639 0 .754.314 1.13.942 1.13.503 0 .993-.2 1.471-.603.502-.427.879-.854 1.131-1.281l.377-.603c.502-.805.917-2.086 1.244-3.846.351-1.759.578-3.317.678-4.674l.113-2.036c0-.2-.038-.301-.113-.301l-.151.075-3.732 4.373c-.276.327-.465.49-.565.49-.126 0-.189-.088-.189-.264 0-.327.088-.578.264-.754l.339-.414c2.865-3.217 4.499-5.165 4.901-5.844.377-.577.93-1.08 1.659-1.507.703-.402 1.533-.604 2.488-.604.251 0 .377.101.377.302 0 .126-.101.239-.302.34a1.099 1.099 0 00-.301.188c-.101.075-.302.276-.604.603a6.336 6.336 0 00-.753 1.13c-.227.428-.428 1.031-.604 1.81-.176.754-.263 1.596-.263 2.526 0 2.89-.277 5.064-.83 6.522z" fill="#E9627B"/><path d="M166.942 39.95a92.506 92.506 0 01-3.845 4.485c-1.156 1.257-1.973 2.099-2.45 2.526l-.716.603c-.403.327-.717.49-.943.49-.276 0-.415-.226-.415-.678 0-1.081.578-3.481 1.735-7.2l-.227.112a89.389 89.389 0 01-3.619 4.223c-1.105 1.206-1.897 2.023-2.375 2.45l-.716.603c-.402.327-.716.49-.942.49-.277 0-.415-.226-.415-.678 0-1.257.553-3.557 1.659-6.9 1.106-3.367 2.186-6.043 3.242-8.029a3.86 3.86 0 011.206-1.357c.528-.377 1.093-.565 1.696-.565.176 0 .264.075.264.226 0 .15-.1.427-.301.83-.704 1.457-1.571 3.568-2.601 6.332-1.031 2.74-1.546 4.637-1.546 5.693 0 .125.025.188.075.188.101 0 .277-.138.528-.414.302-.277.691-.654 1.169-1.131.477-.478 1.206-1.32 2.186-2.526.98-1.231 1.672-2.312 2.074-3.242l1.809-4.034c.402-.653.855-1.13 1.357-1.432.528-.327.993-.49 1.395-.49.302 0 .452.075.452.226 0 .1-.113.377-.339.83-2.186 4.548-3.556 8.43-4.109 11.648-.025.1-.038.2-.038.301 0 .151.038.227.114.227.175 0 .804-.578 1.884-1.735 1.081-1.18 1.81-2.073 2.187-2.676a.67.67 0 00.075-.302c-.1-.226-.151-.527-.151-.904 0-1.508.754-3.18 2.262-5.014 1.533-1.86 3.079-3.079 4.637-3.657.151-.05.251-.075.302-.075.15 0 .226.063.226.188-.025.704-1.923 3.732-5.693 9.085-.075.1-.113.176-.113.227 0 .1.038.163.113.188.302.15.604.226.905.226 1.131 0 2.488-.942 4.072-2.827.05-.05.088-.075.113-.075.125 0 .188.138.188.414 0 .277-.301.754-.905 1.433-1.105 1.256-2.375 1.885-3.807 1.885-.503 0-.993-.1-1.47-.302l-.189.113z" fill="#E9627B"/><path d="M148.692 44.661c-2.086 1.91-3.518 2.865-4.297 2.865-.352 0-.528-.2-.528-.603 0-.503.214-1.269.641-2.3a27.24 27.24 0 011.357-2.714l.679-1.168c.1-.176.15-.29.15-.34 0-.05-.025-.075-.075-.075-.101 0-.289.138-.565.415a61.614 61.614 0 01-2.602 2.676 63.333 63.333 0 01-2.337 2.187l-.867.754c-.98.754-1.734 1.13-2.262 1.13-.553 0-.829-.427-.829-1.281 0-.427.126-1.08.377-1.96.226-.88.402-1.47.528-1.772a25.69 25.69 0 012.148-4.11 25.618 25.618 0 013.092-3.807 14.22 14.22 0 014.109-2.978c1.583-.754 3.216-1.13 4.9-1.13 1.408 0 2.111.213 2.111.64 0 .252-.314.377-.942.377-2.312 0-4.486.993-6.522 2.978a24.393 24.393 0 00-4.9 6.786c-.352.703-.528 1.294-.528 1.772 0 .276.088.414.264.414.301 0 .691-.213 1.168-.64.302-.277.704-.642 1.207-1.094.527-.452 1.369-1.32 2.525-2.6 1.156-1.283 2.074-2.476 2.752-3.582a5.34 5.34 0 01.453-.716c.226-.277.641-.641 1.244-1.094.603-.477 1.206-.716 1.809-.716.327 0 .49.088.49.264 0 .05-.037.138-.113.264-.1.2-.389.703-.867 1.508-.452.804-.88 1.57-1.282 2.3a82.54 82.54 0 00-1.281 2.337 35.432 35.432 0 00-1.094 2.148c-.251.603-.377 1.005-.377 1.207 0 .15.063.226.189.226.377 0 1.294-.73 2.752-2.187a142.72 142.72 0 003.883-4.26c.075-.075.138-.113.188-.113.05 0 .076.05.076.151 0 .478-.189.943-.566 1.395-2.463 2.74-4.549 4.888-6.258 6.446zm-15.061-9.801c-.176.327-1.232 2.45-3.167 6.37-1.281 2.614-2.576 4.587-3.883 5.92-1.281 1.356-2.261 2.035-2.94 2.035-.302 0-.452-.138-.452-.415l.113-.452c.276-.754 1.131-2.526 2.563-5.315a190.83 190.83 0 014.071-7.427 497.49 497.49 0 013.469-5.956 281.19 281.19 0 012.525-4.26l.83-1.357a7.7 7.7 0 00.188-.302 9.36 9.36 0 01.49-.678c.277-.327.553-.603.83-.83.276-.25.603-.477.98-.678.377-.201.741-.302 1.093-.302.327 0 .49.088.49.264 0 .227-.151.553-.452.98-1.885 3.217-3.896 6.874-6.032 10.97a.336.336 0 00-.038.151c0 .076.051.113.151.113 1.583 0 3.041-.301 4.373-.904 1.357-.604 2.45-1.383 3.28-2.338.854-.98 1.508-2.023 1.96-3.129.477-1.105.716-2.198.716-3.28 0-1.532-.578-2.688-1.734-3.467-1.156-.78-2.513-1.169-4.071-1.169a11.61 11.61 0 00-3.468.528 7.207 7.207 0 00-2.941 1.81c-.829.854-1.244 1.872-1.244 3.053 0 .703.189 1.382.566 2.035.125.252.188.428.188.528 0 .151-.1.226-.301.226-.051 0-.151-.025-.302-.075a1.682 1.682 0 01-.302-.15 15.735 15.735 0 01-.678-.453 6.23 6.23 0 01-.867-.716 3.743 3.743 0 01-.679-.98 2.987 2.987 0 01-.301-1.282c0-1.558.955-2.865 2.865-3.92 1.935-1.056 4.121-1.584 6.559-1.584 1.181 0 2.3.1 3.355.302 1.081.2 2.124.527 3.129.98 1.03.427 1.847 1.055 2.45 1.884.603.83.905 1.81.905 2.94 0 1.685-.44 3.205-1.319 4.562a9.662 9.662 0 01-3.393 3.205 19.208 19.208 0 01-4.448 1.809c-1.584.402-3.18.603-4.788.603-.025-.025-.063-.038-.113-.038-.101 0-.176.063-.226.189z" fill="#E9627B"/></svg>