<svg width="262" height="654" fill="none" xmlns="http://www.w3.org/2000/svg"><path d="M105.507 122.068l2.989-3.069 1.946 2.948 1.645-.04 3.59 2.909 6.137 11.833 7.635 18.536 5.915 17.83 5.618 23.079 4.43 44.077-.444 11.993-.139 1.689c5.744-16.146 12.687-31.197 22.038-43.719 4.8-6.429 15.883-14.06 24.863-19.822 13.058-8.379 26.074-14.634 26.074-14.634-2.734 9.361-3.762 18.805-4.774 28.099-1.179 10.831-2.335 21.458-6.145 31.506-7.077 18.669-14.516 26.05-23.731 30.404-7.77 3.672-12.921 5.805-17.434 7.673l-.002.001-.002.001c-6.145 2.544-11.108 4.599-19.894 9.385-1.653.9-3.914 3.655-6.095 6.746l-2.22 2.006-7.333 20.609-.059.406-9.86 46.852-15.487 60.439 2.651-4.28 11.398-15.588 14.887-14.471 13.026-8.655 19.215-7.957 23.123-4.143 36.29-1.213 22.751-2.98 13.074-4.793-.326 5.025-10.606 17.122-14.84 18.333-15.678 12.935-10.747 5.538-14.981 6.748-16.935 4.84-26.194 5.725-21.541 7.213-12.282 6.329-16.469 11.4-11.445 11.726-22.094 57.043-15.025 34.942-19.956 42.341-19.259 36.152-8.326 14.005-4.281-2.651 5.628-13.586 14.87-30.667L22 603.5l1.306-2.643 1.36-2.803L29 589.5l5.5-12.5 7.098-15.843L59.6 516.909l21.675-59.741 7.07-22.101 2.997-10.592c.373-8.607.695-25.319-1.977-31.956l-.719-1.791c-5.956-14.854-11.474-28.616-36.903-56.623-13.28-14.626-23.206-39.953-21.435-71.909.618-11.155 2.566-20.014 4.41-28.4 3.438-15.636 6.514-29.628-.066-53.796 0 0 18.675 20.798 35.766 44.509 11.753 16.305 25.855 37.132 29.523 50.377 9.967 35.987 7.612 74.183 1.911 112.444l6.121-21.635 2.558-12.004 10.068-41.445-.092-.003 1.5-6.244 4.507-15.941L130.17 269l1.488-18.01.068-15.728-3.605-35.86-3.222-15.648-5.317-20.091-5.915-17.829-6.662-17.063-1.498-6.703z" fill="#7BB361"/><path d="M59.806 31.437l-11.33-.709-1.647 7.192-1.213 5.883-.59 6.827 1.093 9.553 3.585 10.346-1.32.457s-6.125 1.84-9.896 3.43c-5.795 2.442-14.172 7.725-14.172 7.725s8.564 2.896 12.983 6.757c5.542 4.843 10.369 16.272 10.369 16.272l3.88 6.933 7.544 8.974 5.347 4.768 10.075 5.614 9.05 2.658 7.622.669 10.92-.473 8.174-2.005 4.362-2.339 3.299-1.144 8.616-7.124 5.574-5.242 2.934-4.328 5.465-7.687 4.037-9.677 2.717-9.218.738-8.533-.581-8.076s-.898-9.604-.064-15.538c.756-5.378 3.702-13.202 3.702-13.202s-11.651.49-18.391 3.228c-2.288.93-5.682 2.796-5.682 2.796l-4.215.633-.108-2.446-4.353-12.562-1.941-3.466-3.771-4.487L107 17.069l-6.403-4.403-8.344 6.203-4.116 6.889-4.55 8.198-.038 4.152-1.32.457-.295 3.413-1.32.458-3.516-3.748-1.32.457-.511-1.478-7.327-4.083-8.134-2.147z" fill="#EEC760"/><path d="M84.347 51.075l7.11-.809 6.302 1.127 8.903 4.364.364 3.185-2.018 4.838-2.314 8.251-.777 12.685 1.31 14.445.877 4.662-1.32.457-6.992-11.648-7.8-9.713-7.435-6.528-1.428-1.988-1.32.457-6.667-4.311-.364-3.184 1.358-4.61 4.402-6.491 3.447-2.85 4.362-2.34z" fill="#FCFCFC"/></svg>