<svg width="244" height="278" fill="none" xmlns="http://www.w3.org/2000/svg"><path d="M32.67 51.121l2.744-.607V38.462C35.414 19.412 52.233 3.5 73.58 3.5h97.727c21.347 0 38.165 15.911 38.165 34.962V50.66l2.674.65c16.503 4.011 28.354 17.773 28.354 33.796v107.786c0 16.023-11.851 29.785-28.354 33.796l-2.674.65v12.199c0 19.051-16.818 34.962-38.165 34.962H73.58c-21.347 0-38.166-15.911-38.166-34.962v-12.051l-2.743-.608C15.746 223.132 3.5 209.178 3.5 192.893V85.107c0-16.285 12.246-30.24 29.17-33.986z" fill="#F1C75F" stroke="#F8F0DD" stroke-width="7"/><path d="M179.031 147.751h-4.138v-12.463h-2.564v-1.636h2.564v-5.188h4.138v5.188h4.272v1.636h-4.272v12.463zm-7.923-4.504c0 .619-.089 1.168-.268 1.648-.179.48-.423.899-.733 1.257-.309.35-.675.647-1.098.891a6.794 6.794 0 01-1.367.574 8.965 8.965 0 01-1.514.318c-.529.065-1.054.097-1.575.097-.7 0-1.318-.045-1.855-.134a7.452 7.452 0 01-1.538-.427 9.112 9.112 0 01-1.465-.782 28.62 28.62 0 01-1.612-1.159l2.405-1.966c.22.415.509.794.867 1.136.366.333.745.622 1.135.866a5.82 5.82 0 001.135.562c.367.13.664.195.892.195.187 0 .398-.004.634-.012.236-.016.476-.041.721-.073a5.54 5.54 0 00.72-.171c.236-.073.443-.171.622-.293a1.355 1.355 0 00.611-1.172c0-.277-.074-.517-.22-.72a1.939 1.939 0 00-.549-.549 3.506 3.506 0 00-.782-.391 13.161 13.161 0 00-1.745-.488 19.246 19.246 0 01-.72-.183 48.261 48.261 0 00-1.184-.318c-.416-.114-.826-.24-1.233-.378a9.548 9.548 0 01-1.172-.513 4.49 4.49 0 01-.977-.696 3.348 3.348 0 01-.671-.964c-.163-.374-.244-.81-.244-1.306 0-.912.179-1.673.537-2.283a4.237 4.237 0 011.44-1.477 6.044 6.044 0 012.027-.794 11.528 11.528 0 012.307-.231c.537 0 1.102.057 1.696.17a9.14 9.14 0 011.734.489 8.622 8.622 0 011.575.781c.488.309.895.663 1.22 1.062l-2.405 1.978a4.173 4.173 0 00-.708-1.258 3.993 3.993 0 00-.939-.854 3.702 3.702 0 00-1.038-.501 3.382 3.382 0 00-.977-.158c-.293 0-.622.012-.988.036a3.936 3.936 0 00-1.038.208c-.317.114-.59.289-.818.525-.22.227-.329.545-.329.952 0 .293.065.545.195.757.138.203.317.382.537.537.22.146.468.272.745.378.284.098.573.187.866.269.293.073.578.138.855.195.276.057.525.118.744.183.375.106.769.216 1.184.33.424.105.839.232 1.246.378.407.138.797.305 1.171.501.383.187.717.419 1.001.695.285.277.513.603.684.977.171.366.256.802.256 1.306zm-24.878-2.185c.505.114 1.01.203 1.514.269.505.065 1.013.097 1.526.097.537 0 1.034-.049 1.489-.146a3.339 3.339 0 001.197-.513c.341-.244.61-.566.805-.964.196-.399.293-.895.293-1.49 0-.48-.065-.919-.195-1.318a2.773 2.773 0 00-.586-1.025 2.524 2.524 0 00-.94-.66c-.374-.162-.81-.244-1.306-.244-.464 0-.883.086-1.257.257a3.292 3.292 0 00-.977.696 4.334 4.334 0 00-.72 1 7.725 7.725 0 00-.769 2.454 8.986 8.986 0 00-.086 1.196v.196c0 .065.004.13.012.195zm10.169-2.783c0 .578-.094 1.094-.281 1.55a3.844 3.844 0 01-.769 1.184 4.477 4.477 0 01-1.111.867 7.51 7.51 0 01-1.355.586c-.48.146-.976.252-1.489.317-.505.065-.997.098-1.477.098-.61 0-1.213-.041-1.807-.122a11.07 11.07 0 01-1.757-.415 7.33 7.33 0 00.427 1.538c.195.48.456.903.781 1.269.326.358.724.643 1.196.855.48.211 1.046.317 1.697.317a3.882 3.882 0 002.307-.744c.326-.236.611-.517.855-.843.252-.325.455-.687.61-1.086l1.782.659a5.127 5.127 0 01-1.111 1.672 6.395 6.395 0 01-1.586 1.16 7.7 7.7 0 01-1.88.671c-.66.147-1.315.22-1.966.22-1.074 0-2.067-.179-2.978-.537a7.04 7.04 0 01-2.356-1.526 7 7 0 01-1.55-2.331c-.375-.904-.562-1.892-.562-2.967 0-1.074.187-2.063.562-2.966a7 7 0 011.55-2.331 6.877 6.877 0 012.356-1.514c.911-.366 1.904-.549 2.978-.549.521 0 1.054.036 1.599.109a9.464 9.464 0 011.587.354c.513.155.997.358 1.453.611.456.252.85.565 1.184.94.342.366.61.793.806 1.281.203.489.305 1.046.305 1.673zm-14.929-3.382l-2.32 3.846a15.742 15.742 0 00-.378-1.099 5.95 5.95 0 00-.574-1.135 3.304 3.304 0 00-.818-.891 1.751 1.751 0 00-1.098-.367c-.383 0-.716.098-1.001.293a2.585 2.585 0 00-.708.769c-.196.31-.358.664-.489 1.062-.122.391-.219.79-.292 1.197-.066.399-.11.785-.135 1.159a14.86 14.86 0 00-.036.953v7.067h-4.139v-14.099h1.587l1.673 3.284a9.14 9.14 0 01.781-1.453c.293-.447.631-.83 1.013-1.147a4.293 4.293 0 011.294-.757 4.764 4.764 0 011.648-.268c.317 0 .671.028 1.062.085.391.049.773.138 1.148.269.374.122.72.284 1.037.488.317.203.566.451.745.744zm-24.732 6.165c.505.114 1.009.203 1.514.269.505.065 1.013.097 1.526.097.537 0 1.033-.049 1.489-.146a3.326 3.326 0 001.196-.513c.342-.244.611-.566.806-.964.195-.399.293-.895.293-1.49 0-.48-.065-.919-.195-1.318a2.787 2.787 0 00-.586-1.025 2.532 2.532 0 00-.94-.66c-.375-.162-.81-.244-1.306-.244-.464 0-.883.086-1.258.257a3.3 3.3 0 00-.976.696 4.334 4.334 0 00-.72 1 7.627 7.627 0 00-.769 2.454 8.986 8.986 0 00-.086 1.196v.196c0 .065.004.13.012.195zm10.169-2.783c0 .578-.094 1.094-.281 1.55a3.862 3.862 0 01-.769 1.184 4.477 4.477 0 01-1.111.867 7.51 7.51 0 01-1.355.586c-.48.146-.976.252-1.489.317-.505.065-.997.098-1.477.098-.611 0-1.213-.041-1.807-.122-.594-.09-1.18-.228-1.758-.415.09.537.232 1.05.428 1.538.195.48.455.903.781 1.269.325.358.724.643 1.196.855.48.211 1.046.317 1.697.317a3.882 3.882 0 002.307-.744c.326-.236.61-.517.855-.843.252-.325.455-.687.61-1.086l1.782.659a5.127 5.127 0 01-1.111 1.672 6.419 6.419 0 01-1.587 1.16 7.685 7.685 0 01-1.88.671 9.002 9.002 0 01-1.965.22c-1.074 0-2.067-.179-2.978-.537a7.04 7.04 0 01-2.356-1.526 7.003 7.003 0 01-1.551-2.331c-.374-.904-.561-1.892-.561-2.967 0-1.074.187-2.063.561-2.966a7.003 7.003 0 011.551-2.331 6.877 6.877 0 012.356-1.514c.911-.366 1.904-.549 2.978-.549.521 0 1.054.036 1.599.109a9.486 9.486 0 011.587.354c.513.155.997.358 1.453.611.456.252.85.565 1.184.94.342.366.61.793.806 1.281.203.489.305 1.046.305 1.673zm-19.116 9.472h-4.139v-12.463h-2.563v-1.636h2.563v-5.188h4.139v5.188h4.272v1.636h-4.272v12.463zm-7.886-8.081c0 .953-.118 1.945-.354 2.979a17.792 17.792 0 01-.965 3.039 16.676 16.676 0 01-1.489 2.796 11.994 11.994 0 01-1.904 2.27l-1.55-.842c.22-.407.427-.863.622-1.367.195-.505.37-1.038.525-1.599.163-.57.305-1.156.427-1.758.13-.602.236-1.196.318-1.782.09-.594.154-1.168.195-1.721a18.15 18.15 0 00.073-1.563c0-.317-.012-.655-.036-1.013a7.017 7.017 0 00-.16-1.087 6.233 6.233 0 00-.304-1.049 2.958 2.958 0 00-.525-.879 2.413 2.413 0 00-.781-.611c-.302-.154-.66-.232-1.075-.232a2.1 2.1 0 00-1.086.281 2.942 2.942 0 00-.842.72 4.647 4.647 0 00-.635 1.014 8.515 8.515 0 00-.427 1.184 8.897 8.897 0 00-.232 1.184c-.05.39-.074.74-.074 1.05v7.067h-4.138v-14.099h1.587l1.892 3.284a6.68 6.68 0 01.855-1.489 5.73 5.73 0 011.16-1.148 5.06 5.06 0 011.428-.732 5.525 5.525 0 011.709-.256c.976 0 1.827.158 2.55.476a4.89 4.89 0 011.808 1.33c.48.562.838 1.233 1.074 2.014.236.773.354 1.62.354 2.539zm-17.7-9.424c0 .309-.061.602-.183.879a2.17 2.17 0 01-.477.72 2.335 2.335 0 01-.72.488c-.276.114-.57.171-.879.171-.309 0-.602-.057-.879-.171a2.337 2.337 0 01-1.196-1.208 2.289 2.289 0 01-.17-.879 2.2 2.2 0 01.17-.867 2.36 2.36 0 01.488-.72c.204-.203.44-.362.708-.476.277-.122.57-.183.88-.183.308 0 .602.061.878.183a2.18 2.18 0 011.197 1.196c.122.269.183.558.183.867zm-.183 17.505h-4.139v-14.087h4.139v14.087zm-17.176 0H60v-17.578h9.497c.822 0 1.607.11 2.356.329a5.95 5.95 0 012.002 1.001 4.78 4.78 0 011.38 1.673c.35.667.524 1.452.524 2.356 0 .569-.081 1.107-.244 1.611-.163.496-.39.952-.683 1.367-.285.415-.623.79-1.014 1.123a6.09 6.09 0 01-1.281.843 6.959 6.959 0 01-1.477.524 6.674 6.674 0 01-1.563.184h-4.65v6.567zm6.006-12.219c0-1.131-.289-2.018-.867-2.661-.57-.651-1.432-.977-2.588-.977h-2.55v7.629h2.55c.619 0 1.144-.097 1.575-.293.44-.203.798-.484 1.074-.842a3.55 3.55 0 00.61-1.257 6.19 6.19 0 00.196-1.599z" fill="#FDFDFD"/></svg>