<svg width="150" height="152" fill="none" xmlns="http://www.w3.org/2000/svg"><path d="M129.89 43.467l2.622 3.25 1.143 3.773-.279 3.58-1.758 4.102-5.155 6.174-6.522 5.264-10.574 6.522-11.997 6.33 11.222-1.009 8.265.038 8.21.753 6.019 1.18 7.002 2.398 5.14 3.23 2.023 1.722 2.622 3.25L150 99.018l-.063 5.418-.991 3.483-3.62 4.935-5.699 3.928-7.394 2.614-7.993 1.084-8.649.273-6.075-.464-5.307-1.083-7.059-1.682-10.448-4.314-6.89-3.83-2.023-1.722-.28 3.58-.174 6.85-.503 6.443-2.037 7.683-3.077 7.179-4.06 5.96-6.138 4.954-4.38.852-3.885-.889-2.734-1.819-2.95-3.656-2.838-5.089-2.176-8.978.287-8.281 1.214-6.347 2.749-7.586 2.581-5.437-5.684-5.476-9.193-1.972-10.176-3.191-7.658-3.211-5.851-3.328-3.717-3.037-4.262-5.282-2.07-5.708.279-3.58.99-3.482.824-1.336 3.836-3.096 4.82-1.878 6.898-.872 9.96 1.353 8.041 2.902 8.314 4.023 7.547 4.643-1.297-11.029.454-10.43.447-5.727 2.205-9.83 3.188-8.611 4.284-8.824 3.676-5.65 4.332-4.839 5.315-3.62L80.365.925l5.308 1.083 3.062 2.224 3.278 4.063 2.398 6.114.648 5.515-.726 9.307-2.093 8.399-2.749 7.585-3.076 7.18-5.379 9.036 2.63-1.451 12.165-8.477 10.902-6.116 8.161-3.233 5.475-1.065 6.075.464 3.446 1.915z" fill="#fff"/><path d="M76.343 77.6l3.287 4.074 1.363 5.624-1.105 4.927-1.65 2.677-3.077 2.483L70 98.86l-5.322-1.086-2.413-1.416-3.671-3.763-1.749-5.314.777-5.334 2.09-3.705 2.693-2.173 4.448-1.572 3.951.175 3.84 1.61 1.699 1.318z" fill="#F0C85F"/></svg>