<svg width="141" height="141" fill="none" xmlns="http://www.w3.org/2000/svg"><path d="M59.51 0h-5.952l-3.246 1.623-2.705 3.246-2.164 5.95v12.444l1.623 7.033 3.787 10.279 4.328 8.114-8.656-8.656-7.032-5.95-7.574-4.328-7.574-2.705h-8.656l-2.705 1.082-2.705 2.164-2.164 3.787v5.41l1.623 4.328 4.328 5.95 4.328 3.787 5.95 3.787 8.657 4.328 11.36 3.787H37.87l-13.525.541-9.197 2.164-5.951 2.705-4.869 3.246-2.164 2.705L0 80.608v5.95l1.623 3.247L5.41 92.51l4.869 2.164h13.525l4.328-1.082 9.738-3.246 10.278-4.87-9.197 9.198-4.868 5.951-3.787 6.492-2.705 6.492-1.082 5.951.54 4.868 1.083 2.705 2.705 3.246 3.246 1.623h5.41l3.245-1.082 5.951-3.787 3.787-4.328 4.328-5.95 4.87-10.279 4.868 11.902.541 2.434.541 2.434 3.787 8.656 4.328 5.41 4.869 2.705h5.95l1.083-.541 3.246-2.705 2.164-3.246 1.623-5.41v-10.278l-1.082-5.951-3.246-9.738-4.87-10.28 6.493 6.493 7.033 6.492 8.656 5.41 8.115 2.705h8.655l2.705-1.082 3.246-2.705 1.623-3.246v-5.41l-2.164-5.41-3.787-4.328-5.41-4.87-7.573-4.868-7.574-3.246-9.738-3.246h14.607l4.869-.54 9.737-2.165 5.951-2.705 5.951-4.328 3.246-5.41v-5.95l-1.082-2.165-4.328-3.787-5.951-2.164h-11.36l-3.246.541-7.574 2.164-10.28 4.328-7.573 4.328L92.51 54.1l5.41-5.41 4.869-5.41 4.328-5.41 3.787-7.032 2.164-7.033V15.69l-1.082-2.705-2.164-2.705-3.787-2.164h-5.41l-4.328 1.623-5.41 3.787-4.328 4.869-3.787 5.95-4.328 8.657-3.787 11.36V30.296l-1.082-8.656-2.164-7.574-2.705-5.951-3.787-4.869L59.51 0z" fill="#E7637A"/><path d="M61.3 55.761l5.546-2.158 5.826.054 5.407 1.959 4.09 3.051 2.383 3.137 1.766 4.537.45 5.63-2.574 6.808-2.24 3.194-3.137 2.382-5.545 2.159-6.33.142-4.707-1.65-4.091-3.053-2.382-3.136-2.159-5.546-.254-5.126 1.763-5.91 3.556-4.288 2.632-2.186z" fill="#EFB74A"/></svg>