<svg width="155" height="149" fill="none" xmlns="http://www.w3.org/2000/svg"><path d="M91.019.697L94.346 0h7.238l7.747 2.786 5.661 4.876 3.029 4.876 1.563 7.662-1.143 9.054-3.739 8.359-5.017 7.662-5.6 6.269 7.5-4.876 9.436-4.18 5.339-1.392h12.502l6.431 2.786 5.661 4.875 2.991 5.573L155 59.205l-.448 8.359-2.968 6.269-4.905 5.572-5.451 3.483-4.718 2.09-7.313 1.392h-10.529l-6.543-.696 9.572 5.572 6.281 5.572 4.928 6.269 2.259 6.965.546 2.09-.336 6.269-3.043 7.662-6.296 6.965-7.425 3.483-2.669.696h-7.896l-7.089-2.786-6.319-4.876-4.928-6.268-1.787-3.483-3.874-1.393h-1.316l-.336 6.269-3.118 9.055-4.321 6.965-5.526 4.876-5.768 2.647H50.57l-5.485-2.647-5.04-4.18-3.029-4.875-1.6-6.966.336-6.268 2.422-8.359 4.36-7.662 8.456-10.448-3.44 2.786-10.169 5.573-9.362 2.786H16.833l-7.089-2.786-5.04-4.18-3.612-6.268L0 90.549l.486-9.055 2.272-5.572 4.247-5.572 7.5-4.876 10.678-2.786h11.844l6.543.697-8.95-4.876-7.561-6.269-4.307-5.572-2.917-6.966-.509-2.786.374-6.965 3.005-6.965 4.247-5.573 6.805-4.179 4.022-1.393h9.87l5.81 2.09 6.32 4.875 4.344 4.876 4.78 9.055 2.295 6.269 1.517-16.02 3.08-8.359 4.285-6.269 6.22-5.572 4.72-2.09z" fill="#F1C85F"/><path d="M65.21 56.328l9.097-3.833 7.614-.185 7.11 2.295 4.92 3.973 2.866 4.084 2.36 6.564.306 6.674-1.75 6.784-5.018 7.405-4.379 3.357-6.67 2.811-6.772.586-6.268-1.894-5.29-3.061-4.787-5.542-2.596-7.22.199-9.154 2.592-6.384 4.884-5.837 1.583-1.423z" fill="#FDFDFD"/></svg>