<svg width="135" height="127" fill="none" xmlns="http://www.w3.org/2000/svg"><path d="M45.121 0H32.736l-6.193 3.539-3.539 4.424-3.539 7.077-2.654 10.617v12.387h-1.77l-5.308 2.654-6.193 7.078L0 59.277v15.04l1.77 8.848 5.308 12.386 4.424 7.078 9.732 9.732 9.732 6.194 8.847 3.539 13.271 3.538 10.617.885 6.193-.885h4.424l13.27-4.423 8.848-3.539 5.309-3.539 9.732-6.193 8.847-8.848 7.078-8.847 4.424-8.847 2.654-8.848v-15.04l-1.77-5.309-5.308-7.078-7.963-4.423-5.308-.885.885-2.654v-15.04l-.885-4.424-2.654-6.193-7.078-7.963L99.09.885h-8.847l-8.847 3.539-8.848 7.078-1.77 4.423H69.01l-1.77 3.54h-1.77l-2.654-5.31h-1.77v-1.769L53.97 5.308 45.12 0z" fill="#F0C960"/><path d="M66.355 30.081l8.847 1.77 7.078 3.538 8.848 7.963-.885 3.539-4.424 4.424-6.193 7.962-6.193 13.271-4.424 15.926-.884 5.308h-1.77l-3.539-15.04-5.308-13.272-6.193-9.732-.885-2.654h-1.77l-6.193-7.078.885-3.539 3.539-4.423 7.963-5.309 5.308-1.77 6.193-.884z" fill="#FCFCFC"/></svg>