<svg width="248" height="170" fill="none" xmlns="http://www.w3.org/2000/svg"><path d="M45.924 146.81l-.722-2.545H34.311c-17.588 0-30.811-11.956-30.811-25.53V50.647c0-13.574 13.223-25.53 30.811-25.53h11.005l.766-2.46C49.415 11.948 61.232 3.5 75.922 3.5h96.155c14.691 0 26.508 8.447 29.841 19.158l.766 2.46h11.005c17.588 0 30.811 11.955 30.811 25.53v68.087c0 13.574-13.223 25.53-30.811 25.53h-10.891l-.722 2.545c-3.106 10.961-15.059 19.69-29.999 19.69H75.923c-14.94 0-26.893-8.729-30-19.69z" fill="#7BB361" stroke="#F1C75F" stroke-width="7"/><path d="M171.739 79.145l-2.32 3.846a15.81 15.81 0 00-.378-1.099 5.956 5.956 0 00-.574-1.135 3.305 3.305 0 00-.818-.891 1.75 1.75 0 00-1.098-.367c-.383 0-.716.098-1.001.294a2.572 2.572 0 00-.708.768c-.196.31-.358.664-.488 1.063-.123.39-.22.789-.293 1.196-.066.399-.11.785-.135 1.16-.024.366-.036.683-.036.952v7.067h-4.139V77.9h1.587l1.673 3.284a9.116 9.116 0 01.781-1.453c.293-.447.631-.83 1.013-1.147a4.305 4.305 0 011.294-.757 4.763 4.763 0 011.648-.268c.317 0 .671.028 1.062.085.391.049.773.138 1.148.269.374.122.72.284 1.037.488.318.203.566.452.745.745zM156.309 92h-4.126V71.405h1.587l2.539 4.285v16.308zm-6.787-7.031a8.77 8.77 0 01-.464 2.88 6.943 6.943 0 01-1.343 2.344 6.314 6.314 0 01-2.148 1.563c-.846.382-1.807.574-2.881.574a4.978 4.978 0 01-2.917-.928 5.45 5.45 0 01-1.087-1.074 5.163 5.163 0 01-.732-1.392L136.119 92h-1.587V72.713h4.126v6.872c.488-.675 1.074-1.171 1.758-1.489a5.374 5.374 0 012.27-.476c1.074 0 2.035.191 2.881.574a6.314 6.314 0 012.148 1.562 6.81 6.81 0 011.343 2.332 8.77 8.77 0 01.464 2.88zm-4.187 0c0-.358-.02-.737-.061-1.135a8.812 8.812 0 00-.183-1.209 6.137 6.137 0 00-.379-1.147 3.493 3.493 0 00-.598-.965 2.636 2.636 0 00-.879-.671c-.341-.171-.744-.257-1.208-.257-.423 0-.802.09-1.135.269-.326.17-.615.403-.867.696a4.432 4.432 0 00-.623 1 7.35 7.35 0 00-.415 1.16 9.1 9.1 0 00-.305 2.259c0 .366.016.753.049 1.16.041.406.106.813.195 1.22.09.399.212.781.366 1.148.163.358.367.68.611.964.252.277.549.496.891.66.35.162.761.243 1.233.243.456 0 .854-.081 1.196-.244.35-.17.647-.395.891-.671a3.68 3.68 0 00.598-.977c.163-.374.289-.76.379-1.16a8.83 8.83 0 00.183-1.196c.041-.407.061-.79.061-1.147zm-13.55-1.197c0 .968-.114 1.977-.342 3.027a17.981 17.981 0 01-.964 3.076 16.878 16.878 0 01-1.477 2.82 12.042 12.042 0 01-1.929 2.307l-1.55-.842c.236-.423.452-.9.647-1.428.195-.529.374-1.087.537-1.672.163-.586.305-1.189.427-1.807.122-.619.224-1.233.305-1.843a24.524 24.524 0 00.257-3.418c0-.285-.008-.594-.025-.928a8.504 8.504 0 00-.109-1.001 5.164 5.164 0 00-.232-.952 2.73 2.73 0 00-.44-.818 1.877 1.877 0 00-.683-.574c-.269-.146-.595-.22-.977-.22a1.55 1.55 0 00-.964.306 2.578 2.578 0 00-.672.769 4.595 4.595 0 00-.451 1.074c-.106.399-.188.802-.245 1.208a15.64 15.64 0 00-.122 1.148 21.79 21.79 0 00-.024.928v7.067h-4.114v-6.567c0-.285.004-.627.012-1.025.009-.407-.004-.83-.036-1.27a10.19 10.19 0 00-.159-1.306 4.113 4.113 0 00-.366-1.172 2.184 2.184 0 00-.672-.83c-.284-.22-.642-.33-1.074-.33-.366 0-.675.102-.927.306a2.56 2.56 0 00-.623.793c-.163.317-.293.68-.391 1.087-.089.398-.158.801-.207 1.208-.041.399-.065.781-.073 1.147-.009.359-.013.656-.013.892v7.067h-4.138V77.9h1.587l1.514 3.284c.342-1.14.879-2.026 1.611-2.661.741-.643 1.721-.964 2.942-.964 1.099 0 2.01.228 2.734.683.725.456 1.294 1.197 1.709 2.222.236-.448.497-.85.782-1.209.293-.358.614-.663.964-.915a4.1 4.1 0 011.184-.574 4.655 4.655 0 011.428-.207c.961 0 1.778.158 2.454.476.683.309 1.241.74 1.672 1.294.432.553.745 1.212.94 1.977a9.82 9.82 0 01.293 2.466zM92.112 85.97c0-.644.053-1.311.159-2.003.114-.691.273-1.383.476-2.075.212-.692.464-1.375.757-2.05a17.26 17.26 0 01.989-1.942h3.015a24.21 24.21 0 00-.55 1.917c-.154.66-.288 1.322-.402 1.99a34.17 34.17 0 00-.257 1.94 19.908 19.908 0 00-.085 1.77c0 .318.012.66.037 1.026.032.358.085.72.158 1.086.073.358.175.704.305 1.038.139.334.314.63.525.891.212.252.468.456.77.61.308.147.67.22 1.086.22.407 0 .769-.09 1.086-.268.326-.188.611-.428.855-.72a4.6 4.6 0 00.622-1.026 7.71 7.71 0 00.415-1.172c.114-.407.196-.801.244-1.184.057-.39.086-.74.086-1.05V77.9h4.126V92h-1.587l-1.892-3.284a7.058 7.058 0 01-.867 1.49 5.65 5.65 0 01-1.147 1.134 5.024 5.024 0 01-1.44.733 5.45 5.45 0 01-1.698.256c-.976 0-1.826-.159-2.55-.476a4.951 4.951 0 01-1.808-1.318 5.517 5.517 0 01-1.074-2.002 8.832 8.832 0 01-.354-2.564zM87.12 92h-4.847V76.668h-4.785v-2.246h14.417v2.246H87.12V92z" fill="#FDFDFD"/></svg>