<svg width="224" height="224" fill="none" xmlns="http://www.w3.org/2000/svg"><path d="M20.193 113.127l.828-1.621-.853-1.609C9.93 90.578 4.268 71.762 3.573 55.462c-.695-16.286 3.558-29.797 12.825-39.064S39.176 2.878 55.462 3.573c16.3.696 35.116 6.357 54.435 16.595l1.609.853 1.621-.828c18.89-9.642 37.339-14.797 53.4-15.125 16.041-.327 29.486 4.15 38.861 13.525 9.375 9.376 13.852 22.82 13.525 38.862-.327 16.06-5.482 34.51-15.125 53.399l-.827 1.622.852 1.609c10.239 19.318 15.9 38.135 16.596 54.434.695 16.287-3.559 29.798-12.825 39.065-9.267 9.266-22.778 13.52-39.065 12.825-16.299-.696-35.116-6.357-54.434-16.596l-1.609-.852-1.622.827c-18.889 9.643-37.339 14.798-53.399 15.125-16.041.327-29.486-4.15-38.861-13.525-9.376-9.375-13.853-22.82-13.526-38.861.328-16.061 5.483-34.51 15.125-53.4z" fill="#FFB8C6" stroke="#60A3BF" stroke-width="7"/><path d="M158.763 106.146l-2.319 3.845a16.337 16.337 0 00-.379-1.099 5.89 5.89 0 00-.573-1.135 3.32 3.32 0 00-.818-.891 1.755 1.755 0 00-1.099-.366 1.73 1.73 0 00-1.001.292 2.603 2.603 0 00-.708.77 4.724 4.724 0 00-.488 1.062c-.122.39-.22.789-.293 1.196a14.233 14.233 0 00-.171 2.112V119h-4.138v-14.1h1.587l1.672 3.284a9.14 9.14 0 01.781-1.453c.293-.447.631-.83 1.014-1.147a4.269 4.269 0 011.294-.757 4.758 4.758 0 011.647-.268c.318 0 .672.028 1.062.085.391.049.774.138 1.148.269.374.122.72.284 1.038.488.317.203.565.452.744.745zm-24.731 6.164c.504.114 1.009.204 1.513.269.505.065 1.014.097 1.526.097.537 0 1.034-.049 1.49-.146a3.341 3.341 0 001.196-.513c.342-.244.61-.566.805-.964.196-.399.293-.895.293-1.49 0-.48-.065-.919-.195-1.318a2.76 2.76 0 00-.586-1.025 2.502 2.502 0 00-.94-.659c-.374-.163-.809-.245-1.306-.245-.464 0-.883.086-1.257.257a3.305 3.305 0 00-.977.696 4.349 4.349 0 00-.72 1.001 7.67 7.67 0 00-.769 2.453 8.977 8.977 0 00-.085 1.196v.196c0 .065.004.13.012.195zm10.168-2.783c0 .578-.093 1.094-.281 1.55a3.844 3.844 0 01-.769 1.184 4.472 4.472 0 01-1.11.867 7.54 7.54 0 01-1.355.586 9.022 9.022 0 01-1.49.317c-.504.065-.997.098-1.477.098-.61 0-1.212-.041-1.806-.122-.594-.09-1.18-.228-1.758-.415a7.39 7.39 0 00.427 1.538c.195.48.456.903.781 1.269.326.358.725.643 1.197.855.48.211 1.045.317 1.696.317a3.92 3.92 0 002.307-.744c.326-.236.611-.517.855-.843.252-.325.456-.687.61-1.086l1.783.659a5.143 5.143 0 01-1.111 1.672 6.419 6.419 0 01-1.587 1.16 7.744 7.744 0 01-1.88.672 9.062 9.062 0 01-1.965.219c-1.075 0-2.067-.179-2.979-.537a7.05 7.05 0 01-2.356-1.526 7 7 0 01-1.55-2.331c-.375-.904-.562-1.892-.562-2.967 0-1.074.187-2.063.562-2.966a7 7 0 011.55-2.331 6.901 6.901 0 012.356-1.514c.912-.366 1.904-.549 2.979-.549.52 0 1.053.036 1.599.109a9.508 9.508 0 011.587.354c.512.155.997.359 1.452.611a4.44 4.44 0 011.184.94c.342.366.611.793.806 1.281.203.489.305 1.046.305 1.673zM125.084 119h-4.138v-12.463h-2.564v-1.636h2.564v-5.188h4.138v5.188h4.272v1.636h-4.272V119zm-11.499 0h-4.138v-12.463h-2.564v-1.636h2.564v-5.188h4.138v5.188h4.272v1.636h-4.272V119zm-8.594-17.505c0 .309-.061.602-.183.879a2.18 2.18 0 01-.476.72 2.345 2.345 0 01-.72.489c-.277.113-.57.17-.879.17-.309 0-.602-.057-.879-.17a2.343 2.343 0 01-1.196-1.209 2.287 2.287 0 01-.171-.879c0-.309.057-.598.171-.867.122-.276.285-.516.488-.72.203-.203.439-.362.708-.476.277-.122.57-.183.879-.183.309 0 .602.061.879.183a2.174 2.174 0 011.196 1.196c.122.269.183.558.183.867zM104.808 119h-4.138v-14.087h4.138V119zm-18.652 0h-3.711l-3.858-14.1h4.126l2.417 9.888 2.014-9.888h3.712l2.465 10.157 2.38-10.157h2.857L94.286 119h-3.711l-2.088-8.57-2.331 8.57zm-12.036 0h-4.847v-15.332h-4.785v-2.246h14.417v2.246H74.12V119z" fill="#FDFDFD"/></svg>